<?xml version="1.0" encoding="UTF-8"?>
<svg width="172px" height="41px" viewBox="0 0 172 41" version="1.1" xmlns="http://www.w3.org/2000/svg" xmlns:xlink="http://www.w3.org/1999/xlink">
    <!-- Generator: Sketch 54.1 (76490) - https://sketchapp.com -->
    <title>Combined-Shape</title>
    <desc>Created with Sketch.</desc>
    <g id="Page-1" stroke="none" stroke-width="1" fill="none" fill-rule="evenodd">
        <g id="Desktop-HD-Copy-10" transform="translate(-634.000000, -54.000000)" fill="#303F9F" fill-rule="nonzero">
            <path d="M638.799247,70.9485571 C637.302724,70.1533708 636.115739,69.1095651 635.290164,67.7179172 C634.464448,66.3262693 634,64.7854373 634,63.0458488 C634,61.3062626 634.412858,59.7654855 635.290164,58.3738238 C636.167329,56.9821485 637.302724,55.9383976 638.799247,55.1431702 C640.29577,54.3479268 641.947061,54 643.856442,54 C645.404696,54 646.849629,54.2485211 648.139652,54.7952434 C649.429816,55.3419657 650.461891,56.0875131 651.339197,57.0815542 L648.655689,59.4672821 C647.417256,58.1253164 645.920733,57.4294787 644.114532,57.4294787 C642.979278,57.4294787 641.998651,57.6779861 641.121486,58.1253164 C640.24418,58.622329 639.573233,59.2684729 639.057195,60.1134101 C638.541158,60.9583495 638.334799,61.9026946 638.334799,62.9961528 C638.334799,64.0896133 638.592747,65.0339584 639.057195,65.8789253 C639.573233,66.7238624 640.24418,67.3699355 641.121486,67.8670326 C641.998651,68.363988 642.979278,68.5628566 644.114532,68.5628566 C645.920733,68.5628566 647.468846,67.8670326 648.655689,66.4753847 L651.339197,68.8610875 C650.461891,69.85514 649.429816,70.6503285 648.139652,71.1970371 C646.849629,71.7437456 645.456285,71.9923651 643.856442,71.9923651 C641.998651,72.0917273 640.29577,71.6941342 638.799247,70.9485571 Z M657.27384,70.8988062 C655.777317,70.10362 654.590473,69.059812 653.713167,67.6681663 C652.835861,66.2765184 652.423003,64.7357413 652.423003,63.0458488 C652.423003,61.3559723 652.835861,59.8151952 653.713167,58.4235198 C654.590473,57.0318582 655.725727,55.9881074 657.27384,55.192864 C658.770362,54.3976206 660.473385,54 662.382766,54 C664.240557,54 665.943438,54.3976206 667.439961,55.192864 C668.936484,55.9881074 670.123469,57.0318582 671.000775,58.4235198 C671.878081,59.8151952 672.290798,61.3559723 672.290798,63.0458488 C672.290798,64.7357413 671.878081,66.2765184 671.000775,67.6681663 C670.123469,69.059812 668.936484,70.10362 667.439961,70.8988062 C665.943438,71.6941342 664.240557,72.0917273 662.382766,72.0917273 C660.473385,72.0917273 658.821952,71.6941342 657.27384,70.8988062 Z M665.272632,67.916644 C666.149938,67.4196864 666.820744,66.7734738 667.285192,65.9285344 C667.80123,65.0836521 668.007729,64.1393093 668.007729,63.0458488 C668.007729,61.9524043 667.80123,61.0080592 667.285192,60.1631061 C666.769155,59.3181689 666.098349,58.672041 665.272632,58.1750124 C664.395326,57.6779861 663.46643,57.4791747 662.382766,57.4791747 C661.299101,57.4791747 660.370206,57.7276959 659.4929,58.1750124 C658.615594,58.672041 657.944787,59.3181689 657.480339,60.1631061 C656.964302,61.0080592 656.757802,61.9524043 656.757802,63.0458488 C656.757802,64.1393093 657.015892,65.0836521 657.480339,65.9285344 C657.996377,66.7734738 658.667183,67.4196864 659.4929,67.916644 C660.370206,68.4137412 661.299101,68.612468 662.382766,68.612468 C663.46643,68.6622189 664.395326,68.4137412 665.272632,67.916644 Z M692.055695,54.3479268 L692.055695,71.7934965 L688.598486,71.7934965 L679.566911,61.2068706 L679.566911,71.7934965 L675.438612,71.7934965 L675.438612,54.3479268 L678.896105,54.3479268 L687.927113,64.9345527 L687.927113,54.3479268 L692.055695,54.3479268 Z M712.903553,54.3479268 L712.903553,71.7934965 L709.446341,71.7934965 L700.416039,61.2068706 L700.416039,71.7934965 L696.287457,71.7934965 L696.287457,54.3479268 L699.744668,54.3479268 L708.774971,64.9345527 L708.774971,54.3479268 L712.903553,54.3479268 Z M731.171927,68.5628566 L731.171927,71.7934965 L717.135314,71.7934965 L717.135314,54.3479268 L730.810094,54.3479268 L730.810094,57.5785804 L721.263896,57.5785804 L721.263896,61.3559723 L729.727418,61.3559723 L729.727418,64.4872339 L721.314779,64.4872339 L721.314779,68.5131034 L731.171927,68.5131034 L731.171927,68.5628566 Z M737.932286,70.9485571 C736.435481,70.1533708 735.248213,69.1095651 734.422778,67.7179172 C733.597346,66.3262693 733.132331,64.7854373 733.132331,63.0458488 C733.132331,61.3062626 733.54505,59.7654855 734.422778,58.3738238 C735.300509,56.9821485 736.435481,55.9383976 737.932286,55.1431702 C739.429091,54.3479268 741.079958,54 742.989482,54 C744.53717,54 745.983092,54.2485211 747.272126,54.7952434 C748.562573,55.3419657 749.594366,56.0875131 750.472094,57.0815542 L747.788021,59.4672821 C746.54987,58.1253164 745.053065,57.4294787 743.246723,57.4294787 C742.111751,57.4294787 741.132255,57.6779861 740.254526,58.1253164 C739.376795,58.622329 738.706838,59.2684729 738.189527,60.1134101 C737.673632,60.9583495 737.467274,61.9026946 737.467274,62.9961528 C737.467274,64.0896133 737.725928,65.0339584 738.189527,65.8789253 C738.706838,66.7238624 739.376795,67.3699355 740.254526,67.8670326 C741.132255,68.363988 742.111751,68.5628566 743.246723,68.5628566 C745.053065,68.5628566 746.602167,67.8670326 747.788021,66.4753847 L750.472094,68.8610875 C749.594366,69.85514 748.562573,70.6503285 747.272126,71.1970371 C745.983092,71.7437456 744.589466,71.9923651 742.989482,71.9923651 C741.079958,72.0917273 739.429091,71.6941342 737.932286,70.9485571 Z M757.645172,57.6282902 L751.865721,57.6282902 L751.865721,54.3479268 L767.656382,54.3479268 L767.656382,57.6282902 L761.876933,57.6282902 L761.876933,71.7934965 L757.696055,71.7934965 L757.696055,57.6282902 L757.645172,57.6282902 Z M783.808877,68.5628566 L783.808877,71.7934965 L769.772264,71.7934965 L769.772264,54.3479268 L783.447044,54.3479268 L783.447044,57.5785804 L773.900846,57.5785804 L773.900846,61.3559723 L782.364368,61.3559723 L782.364368,64.4872339 L773.951729,64.4872339 L773.951729,68.5131034 L783.808877,68.5131034 L783.808877,68.5628566 Z M787.215204,54.3479268 L795.470954,54.3479268 C797.432774,54.3479268 799.18682,54.6958377 800.683625,55.4413851 C802.180431,56.1869188 803.366285,57.1809599 804.193133,58.4732295 C805.018568,59.7654992 805.431284,61.3062763 805.431284,63.0458625 C805.431284,64.7854373 805.018568,66.3262693 804.193133,67.6185549 C803.366285,68.9106966 802.180431,69.9545045 800.683625,70.6503285 C799.18682,71.3959034 797.432774,71.7437456 795.470954,71.7437456 L787.215204,71.7437456 L787.215204,54.3479268 Z M795.264596,68.4634943 C797.070941,68.4634943 798.51545,67.9663949 799.599539,67.0220932 C800.683625,66.0280407 801.199523,64.7357413 801.199523,63.0458625 C801.199523,61.3559723 800.683625,60.0637163 799.599539,59.0696615 C798.51545,58.0756067 797.070941,57.6282902 795.264596,57.6282902 L791.445551,57.6282902 L791.445551,68.4634943 L795.264596,68.4634943 Z M647.210756,90.5312672 L638.695927,90.5312672 L636.838277,94.4578728 L635.135254,94.4578728 L642.153561,79.6961773 L643.753263,79.6961773 L650.719839,94.4578728 L649.016958,94.4578728 L647.210756,90.5312672 Z M646.59154,89.2887346 L642.927547,81.3860538 L639.263695,89.2887346 L646.59154,89.2887346 Z M671.877939,79.7459282 L671.877939,94.4578728 L670.536186,94.4578728 L660.731333,82.5292241 L660.731333,94.4578728 L659.13149,94.4578728 L659.13149,79.7459282 L660.473244,79.7459282 L670.329827,91.7241883 L670.329827,79.7459282 L671.877939,79.7459282 Z M692.312936,90.5312672 L683.798531,90.5312672 L681.940882,94.4578728 L680.237859,94.4578728 L687.255743,79.6961773 L688.855727,79.6961773 L695.87474,94.4578728 L694.119281,94.4578728 L692.312936,90.5312672 Z M691.693862,89.2887346 L688.030292,81.3860538 L684.3663,89.2887346 L691.693862,89.2887346 Z M704.182787,79.7459282 L705.782772,79.7459282 L705.782772,93.1655871 L714.348062,93.1655871 L714.348062,94.4578728 L704.130491,94.4578728 L704.130491,79.7459282 L704.182787,79.7459282 Z M726.217911,89.3880969 L726.217911,94.4578728 L724.617926,94.4578728 L724.617926,89.3880969 L718.476644,79.7459282 L720.232103,79.7459282 L725.443361,87.9964513 L730.706915,79.6961773 L732.306899,79.6961773 L726.217911,89.3880969 Z M744.846707,81.0878252 L739.479974,81.0878252 L739.479974,79.7459282 L751.865721,79.7459282 L751.865721,81.0878252 L746.498988,81.0878252 L746.498988,94.5074842 L744.899003,94.5074842 L744.899003,81.0878252 L744.846707,81.0878252 Z M760.22465,79.7459282 L761.824637,79.7459282 L761.824637,94.4578728 L760.22465,94.4578728 L760.22465,79.7459282 Z M775.138995,93.6129334 C773.900846,92.9667208 772.972232,92.07217 772.249977,90.9290021 C771.578606,89.7858318 771.216773,88.4935484 771.216773,87.1019005 C771.216773,85.6605017 771.578606,84.4179692 772.249977,83.2747989 C772.919936,82.1316309 773.900846,81.2369384 775.138995,80.5908676 C776.377145,79.944655 777.719889,79.5968128 779.267579,79.5968128 C780.402548,79.5968128 781.434341,79.7955396 782.415251,80.1435213 C783.396161,80.4913635 784.17071,81.0382139 784.892966,81.7340378 L783.85976,82.7280904 C782.673905,81.5849224 781.1771,80.9884607 779.319875,80.9884607 C778.132607,80.9884607 776.997635,81.2369384 776.016725,81.7836469 C775.035815,82.3303555 774.261266,83.0263212 773.694486,83.9706229 C773.126294,84.9149245 772.869053,85.9587325 772.869053,87.1019005 C772.869053,88.2450707 773.126294,89.2887346 773.694486,90.2331781 C774.261266,91.1774797 775.035815,91.8733037 776.016725,92.4200123 C776.997635,92.9667208 778.132607,93.2151985 779.319875,93.2151985 C781.1771,93.2151985 782.673905,92.6188786 783.85976,91.4259574 L784.892966,92.4200123 C784.221593,93.1158362 783.396161,93.6625448 782.415251,94.0105265 C781.434341,94.3583687 780.402548,94.557235 779.267579,94.557235 C777.719889,94.6069882 776.326263,94.2590042 775.138995,93.6129334 Z M795.316893,94.0601379 C794.285102,93.7122956 793.458254,93.2649516 792.891476,92.6684899 L793.51055,91.4757106 C794.078742,92.0224191 794.800997,92.4200123 795.729611,92.767994 C796.658222,93.1158362 797.586836,93.2649516 798.567746,93.2649516 C799.961372,93.2649516 800.993165,93.0164717 801.664535,92.5193745 C802.334495,92.0224191 802.696328,91.4259574 802.696328,90.6307712 C802.696328,90.0343095 802.48997,89.5869655 802.128134,89.2391233 C801.767714,88.8911415 801.302702,88.5929107 800.734508,88.4437953 C800.218613,88.2450707 799.445475,88.0462021 798.464567,87.7977244 C797.329595,87.4994936 796.400981,87.2510159 795.729611,87.0023964 C795.058238,86.7539187 794.439164,86.3563256 793.975563,85.8096171 C793.51055,85.2629086 793.251896,84.5670846 793.251896,83.6226411 C793.251896,82.8772058 793.458254,82.1812423 793.872384,81.5849224 C794.285102,80.9884607 794.904176,80.4913635 795.729611,80.1435213 C796.555043,79.7955396 797.639132,79.5968128 798.877283,79.5968128 C799.755014,79.5968128 800.631329,79.6961773 801.458177,79.944655 C802.283612,80.1932745 803.005865,80.4913635 803.62494,80.8890984 L803.056748,82.1316309 C802.437674,81.7340378 801.715418,81.435807 800.993165,81.2369384 C800.270909,81.0382139 799.548656,80.9387098 798.8264,80.9387098 C797.483657,80.9387098 796.451864,81.1873293 795.780494,81.6842847 C795.110534,82.1812423 794.748701,82.8274549 794.748701,83.6226411 C794.748701,84.2191006 794.955059,84.6664468 795.316893,85.06404 C795.677315,85.412024 796.142327,85.7102525 796.710519,85.9089794 C797.277299,86.1078457 798.051849,86.3065725 798.980462,86.5551919 C800.115434,86.8036696 800.993165,87.1019005 801.715418,87.3503782 C802.386791,87.5988559 803.005865,87.9964513 803.470878,88.5431598 C803.934479,89.0900078 804.193133,89.7858318 804.193133,90.6803826 C804.193133,91.4259574 803.986775,92.1217814 803.574057,92.7182431 C803.159927,93.3147025 802.540853,93.8116602 801.664535,94.1596419 C800.786805,94.5074842 799.755014,94.7063505 798.464567,94.7063505 C797.483657,94.6069882 796.400981,94.4081196 795.316893,94.0601379 Z" id="Combined-Shape"></path>
        </g>
    </g>
</svg>