<?xml version="1.0" encoding="UTF-8"?>
<svg width="613px" height="687px" viewBox="0 0 613 687" version="1.1" xmlns="http://www.w3.org/2000/svg" xmlns:xlink="http://www.w3.org/1999/xlink">
    <!-- Generator: Sketch 54.1 (76490) - https://sketchapp.com -->
    <title>Combined Shape</title>
    <desc>Created with Sketch.</desc>
    <g id="Page-1" stroke="none" stroke-width="1" fill="none" fill-rule="evenodd" opacity="0.0532412589">
        <g id="Desktop-HD-Copy-2" transform="translate(-827.000000, -337.000000)" fill="#303F9F">
            <path d="M1281.05799,355.86682 L1578.2771,571.839549 C1612.8962,596.995335 1627.38223,641.585032 1614.15891,682.287936 L1500.63131,1031.73914 C1487.40799,1072.44205 1449.48307,1100 1406.69152,1100 L1039.30848,1100 C996.516929,1100 958.592007,1072.44205 945.368688,1031.73914 L831.841089,682.287936 C818.61777,641.585032 833.103804,596.995335 867.722896,571.839549 L1164.94202,355.86682 C1199.56111,330.71106 1246.43889,330.71106 1281.05799,355.86682 Z M1436,857.168989 C1436,852.907519 1435.36746,848.950771 1433.47243,845.60254 C1433.15659,844.689327 1432.84075,843.776089 1432.20821,842.86285 L1324.79211,639.831834 L1317.2094,625.525283 C1311.83842,616.393466 1301.72901,610.001184 1290.03954,610.001184 C1278.6659,610.001184 1268.87233,615.784666 1263.50135,624.307709 L1261.92129,627.351656 C1261.60545,627.656018 1261.60545,627.960456 1261.60545,627.960456 L1255.28696,639.831834 L1234.43559,679.403075 L1168.40553,803.595713 C1153.24097,818.511218 1131.75793,827.642648 1108.37899,827.338829 C1065.09619,826.72941 1029.08026,792.637806 1027.81656,750.935649 C1026.23694,706.189984 1063.517,669.358071 1109.64234,669.358071 C1132.07376,669.358071 1152.6093,678.185501 1167.45801,692.491975 L1211.37249,650.485637 C1185.46598,625.525283 1149.76589,610.305571 1110.59072,610.001184 C1034.45115,609.696797 970.001164,668.140497 966.209992,741.194826 C961.786959,820.946211 1027.81656,887 1109.3265,886.695303 C1114.38164,886.695303 1119.43678,886.695303 1124.49192,886.086787 C1127.65116,885.782065 1131.12625,885.173549 1134.2855,884.565007 C1135.86469,884.26031 1137.44474,884.26031 1138.70809,883.955614 C1167.14218,878.477112 1192.41701,864.779516 1212.00417,845.60254 C1217.37514,840.427858 1222.11444,833.730569 1225.58953,827.034106 L1248.65263,783.505499 L1290.03954,705.58059 L1377.86848,871.171256 L1377.86848,871.475953 C1383.23946,880.607382 1393.34888,887 1405.03835,887 C1422.0988,887 1436,873.606249 1436,857.168989 Z M1291,809 C1298.1797,809 1304,803.179699 1304,796 C1304,788.820301 1298.1797,783 1291,783 C1283.8203,783 1278,788.820301 1278,796 C1278,803.179699 1283.8203,809 1291,809 Z" id="Combined-Shape"></path>
        </g>
    </g>
</svg>