<?xml version="1.0" encoding="UTF-8"?>
<svg width="294px" height="77px" viewBox="0 0 294 77" version="1.1" xmlns="http://www.w3.org/2000/svg" xmlns:xlink="http://www.w3.org/1999/xlink">
    <!-- Generator: Sketch 54.1 (76490) - https://sketchapp.com -->
    <title>Combined-Shape</title>
    <desc>Created with Sketch.</desc>
    <g id="Page-1" stroke="none" stroke-width="1" fill="none" fill-rule="evenodd">
        <g id="Desktop-HD-Copy-10" transform="translate(-261.000000, -118.000000)" fill="#303F9F" fill-rule="nonzero">
            <path d="M365.53572,157.823973 C363.809547,156.940797 362.440412,155.78149 361.488148,154.235852 C360.53572,152.690213 360,150.978883 360,149.046803 C360,147.114726 360.476214,145.403456 361.488148,143.857802 C362.499918,142.312133 363.809547,141.152888 365.53572,140.269666 C367.261893,139.386426 369.166585,139 371.368972,139 C373.154814,139 374.821481,139.276021 376.309465,139.88324 C377.797613,140.490459 378.988066,141.318504 380,142.422539 L376.904692,145.072256 C375.476214,143.581797 373.750041,142.808962 371.666667,142.808962 C370.357201,142.808962 369.226091,143.084968 368.214321,143.581797 C367.202387,144.133806 366.428478,144.851448 365.833252,145.78988 C365.238025,146.728315 365,147.777155 365,148.991608 C365,150.206064 365.297532,151.254904 365.833252,152.193369 C366.428478,153.131801 367.202387,153.849365 368.214321,154.401467 C369.226091,154.953413 370.357201,155.174287 371.666667,155.174287 C373.750041,155.174287 375.53572,154.401467 376.904692,152.855829 L380,155.505518 C378.988066,156.609566 377.797613,157.492745 376.309465,158.099948 C374.821481,158.707152 373.21432,158.983282 371.368972,158.983282 C369.226091,159.093639 367.261893,158.652051 365.53572,157.823973 Z M386.615583,158.615315 C384.88313,157.692301 383.509177,156.4807 382.493562,154.865345 C381.477946,153.249987 381,151.461528 381,149.499983 C381,147.538456 381.477946,145.749997 382.493562,144.134607 C383.509177,142.519234 384.823407,141.307699 386.615583,140.384619 C388.348036,139.461539 390.319544,139 392.529943,139 C394.68062,139 396.651964,139.461539 398.384417,140.384619 C400.116871,141.307699 401.490986,142.519234 402.506602,144.134607 C403.522217,145.749997 404,147.538456 404,149.499983 C404,151.461528 403.522217,153.249987 402.506602,154.865345 C401.490986,156.4807 400.116871,157.692301 398.384417,158.615315 C396.651964,159.538493 394.68062,160 392.529943,160 C390.319544,160 388.407759,159.538493 386.615583,158.615315 Z M395.839423,155.180666 C396.853205,154.60071 397.628364,153.846571 398.165063,152.860515 C398.761376,151.874527 399,150.772466 399,149.496383 C399,148.220319 398.761376,147.118255 398.165063,146.132184 C397.568749,145.146131 396.79359,144.392091 395.839423,143.812052 C394.82564,143.232016 393.752243,143 392.5,143 C391.247757,143 390.17436,143.290027 389.160577,143.812052 C388.146795,144.392091 387.371636,145.146131 386.834937,146.132184 C386.238623,147.118255 386,148.220319 386,149.496383 C386,150.772466 386.298239,151.874527 386.834937,152.860515 C387.431251,153.846571 388.20641,154.60071 389.160577,155.180666 C390.17436,155.760785 391.247757,155.992702 392.5,155.992702 C393.752243,156.050762 394.82564,155.760785 395.839423,155.180666 Z M426,139 L426,159 L422.047021,159 L411.720304,146.86325 L411.720304,159 L407,159 L407,139 L410.953303,139 L421.279373,151.13675 L421.279373,139 L426,139 Z M450,139 L450,159 L446.046784,159 L435.720908,146.86325 L435.720908,159 L431,159 L431,139 L434.953216,139 L445.279092,151.13675 L445.279092,139 L450,139 Z M471,155.296321 L471,159 L455,159 L455,139 L470.587555,139 L470.587555,142.703695 L459.706072,142.703695 L459.706072,147.034184 L469.353439,147.034184 L469.353439,150.623933 L459.764072,150.623933 L459.764072,155.239282 L471,155.239282 L471,155.296321 Z M478.536356,157.823973 C476.809913,156.940797 475.440497,155.78149 474.488425,154.235852 C473.536356,152.690213 473,150.978883 473,149.046803 C473,147.114726 473.476037,145.403456 474.488425,143.857802 C475.500816,142.312133 476.809913,141.152888 478.536356,140.269666 C480.262798,139.386426 482.166938,139 484.369418,139 C486.15455,139 487.822303,139.276021 489.309098,139.88324 C490.797523,140.490459 491.987612,141.318504 493,142.422539 L489.904141,145.072256 C488.476035,143.581797 486.749593,142.808962 484.666124,142.808962 C483.357027,142.808962 482.227258,143.084968 481.21487,143.581797 C480.202479,144.133806 479.429738,144.851448 478.833062,145.78988 C478.238019,146.728315 478.000002,147.777155 478.000002,148.991608 C478.000002,150.206064 478.298339,151.254904 478.833062,152.193369 C479.429738,153.131801 480.202479,153.849365 481.21487,154.401467 C482.227258,154.953413 483.357027,155.174287 484.666124,155.174287 C486.749593,155.174287 488.536354,154.401467 489.904141,152.855829 L493,155.505518 C491.987612,156.609566 490.797523,157.492745 489.309098,158.099948 C487.822303,158.707152 486.214869,158.983282 484.369418,158.983282 C482.166938,159.093639 480.262798,158.652051 478.536356,157.823973 Z M500.588079,142.760684 L494,142.760684 L494,139 L512,139 L512,142.760684 L505.411924,142.760684 L505.411924,159 L500.646081,159 L500.646081,142.760684 L500.588079,142.760684 Z M530,155.296321 L530,159 L514,159 L514,139 L529.587555,139 L529.587555,142.703695 L518.706072,142.703695 L518.706072,147.034184 L528.353439,147.034184 L528.353439,150.623933 L518.764072,150.623933 L518.764072,155.239282 L530,155.239282 L530,155.296321 Z M534,139 L543.517457,139 C545.779097,139 547.80121,139.399994 549.526768,140.257151 C551.252326,141.114292 552.619412,142.257143 553.572626,143.742867 C554.524209,145.228591 555,147.000025 555,149.00003 C555,151.000022 554.524209,152.771519 553.572626,154.257262 C552.619412,155.742839 551.252326,156.942907 549.526768,157.742897 C547.80121,158.600085 545.779097,159 543.517457,159 L534,159 L534,139 Z M543.306912,155 C545.344009,155 546.973048,154.449462 548.195625,153.403647 C549.418199,152.302733 550,150.87151 550,148.999967 C550,147.128412 549.418199,145.697237 548.195625,144.59632 C546.973048,143.495404 545.344009,143 543.306912,143 L539,143 L539,155 L543.306912,155 Z M374.947053,180.478006 L365.112532,180.478006 L362.96697,185 L361,185 L369.106057,168 L370.953692,168 L379,185 L377.033194,185 L374.947053,180.478006 Z M374,179 L369.999923,170 L366,179 L374,179 Z M403,168 L403,185 L401.421026,185 L389.882693,171.216164 L389.882693,185 L388,185 L388,168 L389.578974,168 L401.178184,181.841163 L401.178184,168 L403,168 Z M425.89992,180.478006 L416.098778,180.478006 L413.960391,185 L412,185 L420.078459,168 L421.920241,168 L430,185 L427.979247,185 L425.89992,180.478006 Z M425,179 L421.000231,170 L417,179 L425,179 Z M440.061419,168 L441.940516,168 L441.940516,183.506733 L452,183.506733 L452,185 L440,185 L440,168 L440.061419,168 Z M464.955747,179.161498 L464.955747,185 L463.104751,185 L463.104751,179.161498 L456,168.057295 L458.030863,168.057295 L464.059683,177.558838 L470.149004,168 L472,168 L464.955747,179.161498 Z M486.066188,169.545382 L480,169.545382 L480,168 L494,168 L494,169.545382 L487.933812,169.545382 L487.933812,185 L486.1253,185 L486.1253,169.545382 L486.066188,169.545382 Z M503.45054,168 L505.54946,168 L505.54946,185 L503.45054,185 L503.45054,168 Z M520.588671,183.921966 C519.140141,183.187885 518.05374,182.171697 517.208762,180.873087 C516.423315,179.574474 516,178.106472 516,176.525594 C516,174.888201 516.423315,173.476714 517.208762,172.178101 C517.992558,170.879491 519.140141,169.863142 520.588671,169.129222 C522.037203,168.39514 523.6081,168 525.418768,168 C526.746588,168 527.953699,168.225749 529.101281,168.621047 C530.248863,169.016188 531.155021,169.637396 532,170.427835 L530.791236,171.557054 C529.403885,170.258443 527.652748,169.580878 525.479951,169.580878 C524.090946,169.580878 522.763125,169.863142 521.615542,170.48419 C520.46796,171.105237 519.561802,171.895837 518.898716,172.96854 C518.23398,174.041243 517.93303,175.226983 517.93303,176.525594 C517.93303,177.824207 518.23398,179.009783 518.898716,180.082648 C519.561802,181.155351 520.46796,181.94579 521.615542,182.566837 C522.763125,183.187885 524.090946,183.470149 525.479951,183.470149 C527.652748,183.470149 529.403885,182.792745 530.791236,181.437616 L532,182.566837 C531.21455,183.357276 530.248863,183.978324 529.101281,184.373622 C527.953699,184.768762 526.746588,184.99467 525.418768,184.99467 C523.6081,185.051188 521.977675,184.655887 520.588671,183.921966 Z M543.789893,184.272935 C542.603052,183.881572 541.65195,183.378257 541,182.707168 L541.712105,181.365152 C542.365681,181.980263 543.196472,182.427602 544.264632,182.819122 C545.33279,183.210485 546.40095,183.378257 547.529265,183.378257 C549.132316,183.378257 550.31916,183.098688 551.09142,182.539396 C551.862057,181.980263 552.278264,181.309174 552.278264,180.414496 C552.278264,179.743407 552.040896,179.240092 551.624686,178.848729 C551.210104,178.457209 550.675213,178.121664 550.021634,177.953892 C549.428214,177.730303 548.538893,177.506553 547.41058,177.226986 C546.105052,176.891442 545.036892,176.611875 544.264632,176.332149 C543.49237,176.052583 542.780265,175.605244 542.246996,174.990133 C541.712105,174.375022 541.414582,173.592138 541.414582,172.529529 C541.414582,171.690826 541.65195,170.907786 542.128312,170.236856 C542.603052,169.565767 543.315156,169.006474 544.264632,168.615111 C545.214106,168.223591 546.461105,168 547.885317,168 C548.894948,168 549.90295,168.111797 550.854052,168.391363 C551.803528,168.671089 552.634317,169.006474 553.346422,169.453973 L552.692846,170.851967 C551.980741,170.404629 551.149949,170.069084 550.31916,169.845333 C549.488369,169.621745 548.65758,169.509791 547.826788,169.509791 C546.282266,169.509791 545.095421,169.789517 544.323162,170.34865 C543.552525,170.907786 543.136317,171.634851 543.136317,172.529529 C543.136317,173.200615 543.373686,173.703932 543.789893,174.151271 C544.204477,174.542794 544.739369,174.878336 545.392945,175.101927 C546.044897,175.325675 546.935841,175.549266 548.004001,175.828992 C549.30953,176.108558 550.31916,176.444103 551.149949,176.723669 C551.922212,177.003236 552.634317,177.450577 553.169208,178.065688 C553.702477,178.680957 554,179.46384 554,180.470314 C554,181.309174 553.762632,182.092057 553.287892,182.763146 C552.81153,183.434233 552.099425,183.993369 551.09142,184.384889 C550.081789,184.776252 548.894948,185 547.41058,185 C546.282266,184.888206 545.036892,184.664455 543.789893,184.272935 Z M306.864443,119.903991 L336.886576,141.699404 C340.383454,144.238061 341.84669,148.737939 340.511001,152.845572 L329.043567,188.11129 C327.707878,192.218922 323.877078,195 319.554699,195 L282.445301,195 C278.122922,195 274.292122,192.218922 272.956433,188.11129 L261.488999,152.845572 C260.15331,148.737939 261.616546,144.238061 265.113424,141.699404 L295.135557,119.903991 C298.632435,117.365336 303.367565,117.365336 306.864443,119.903991 Z M322,170.984591 C322,170.553829 321.936746,170.153869 321.747243,169.815419 C321.715659,169.723109 321.684075,169.630796 321.620821,169.538483 L310.879211,149.015492 L310.12094,147.569343 C309.583842,146.646271 308.572901,146.00012 307.403954,146.00012 C306.26659,146.00012 305.287233,146.584732 304.750135,147.446267 L304.592129,147.753958 C304.560545,147.784724 304.560545,147.815497 304.560545,147.815497 L303.928696,149.015492 L301.843559,153.015473 L295.240553,165.569242 C293.724097,167.076946 291.575793,167.999979 289.237899,167.969268 C284.909619,167.907666 281.308026,164.461583 281.181656,160.246203 C281.023694,155.723175 284.7517,152.000094 289.364234,152.000094 C291.607376,152.000094 293.66093,152.892397 295.145801,154.338539 L299.537249,150.092411 C296.946598,147.569343 293.376589,146.030888 289.459072,146.00012 C281.845115,145.969351 275.400116,151.877018 275.020999,159.261571 C274.578696,167.323083 281.181656,174 289.33265,173.9692 C289.838164,173.9692 290.343678,173.9692 290.849192,173.90769 C291.165116,173.876887 291.512625,173.815377 291.82855,173.753864 C291.986469,173.723064 292.144474,173.723064 292.270809,173.692264 C295.114218,173.138481 297.641701,171.753886 299.600417,169.815419 C300.137514,169.292347 300.611444,168.615364 300.958953,167.938466 L303.265263,163.538462 L307.403954,155.661576 L316.186848,172.399983 L316.186848,172.430782 C316.723946,173.353815 317.734888,174 318.903835,174 C320.60988,174 322,172.646119 322,170.984591 Z M307.5,166 C308.328427,166 309,165.328427 309,164.5 C309,163.671573 308.328427,163 307.5,163 C306.671573,163 306,163.671573 306,164.5 C306,165.328427 306.671573,166 307.5,166 Z" id="Combined-Shape"></path>
        </g>
    </g>
</svg>