<?xml version="1.0" encoding="UTF-8"?>
<svg width="106px" height="28px" viewBox="0 0 106 28" version="1.1" xmlns="http://www.w3.org/2000/svg" xmlns:xlink="http://www.w3.org/1999/xlink">
    <!-- Generator: Sketch 54.1 (76490) - https://sketchapp.com -->
    <title>Combined-Shape</title>
    <desc>Created with Sketch.</desc>
    <g id="Page-1" stroke="none" stroke-width="1" fill="none" fill-rule="evenodd">
        <g id="Desktop-HD-Copy-2" transform="translate(-70.000000, -969.000000)" fill="#3A3A3A" fill-rule="nonzero">
            <path d="M107.546032,983.430202 C106.933291,983.104619 106.447289,982.67724 106.109264,982.10744 C105.77118,981.53764 105.581015,980.906758 105.581015,980.194496 C105.581015,979.482235 105.750057,978.851375 106.109264,978.28157 C106.468412,977.711759 106.933291,977.284402 107.546032,976.958802 C108.158772,976.633196 108.834881,976.49074 109.616663,976.49074 C110.250584,976.49074 110.842201,976.592495 111.370392,976.816346 C111.89864,977.040198 112.321215,977.345457 112.680422,977.752459 L111.581679,978.729278 C111.074612,978.17982 110.461872,977.894915 109.722336,977.894915 C109.257514,977.894915 108.856004,977.996664 108.496855,978.17982 C108.137649,978.383318 107.862934,978.647877 107.651647,978.993831 C107.440359,979.339785 107.355867,979.72644 107.355867,980.174148 C107.355867,980.621858 107.461482,981.008513 107.651647,981.354478 C107.862934,981.700432 108.137649,981.964961 108.496855,982.168494 C108.856004,982.371969 109.257514,982.453394 109.722336,982.453394 C110.461872,982.453394 111.095735,982.168494 111.581679,981.598694 L112.680422,982.575503 C112.321215,982.98251 111.89864,983.308094 111.370392,983.53194 C110.842201,983.755786 110.271707,983.857581 109.616663,983.857581 C108.856004,983.898264 108.158772,983.735473 107.546032,983.430202 Z M115.110318,983.409832 C114.497577,983.084248 114.011633,982.656869 113.652426,982.08707 C113.29322,981.51727 113.124178,980.88641 113.124178,980.194496 C113.124178,979.502589 113.29322,978.871729 113.652426,978.301917 C114.011633,977.732112 114.476454,977.304756 115.110318,976.979149 C115.723058,976.653543 116.420348,976.49074 117.20213,976.49074 C117.962789,976.49074 118.660021,976.653543 119.272761,976.979149 C119.885501,977.304756 120.371503,977.732112 120.73071,978.301917 C121.089916,978.871729 121.2589,979.502589 121.2589,980.194496 C121.2589,980.88641 121.089916,981.51727 120.73071,982.08707 C120.371503,982.656869 119.885501,983.084248 119.272761,983.409832 C118.660021,983.735473 117.962789,983.898264 117.20213,983.898264 C116.420348,983.898264 115.744181,983.735473 115.110318,983.409832 Z M118.385364,982.188807 C118.744571,981.985332 119.019227,981.720745 119.209392,981.37479 C119.42068,981.02886 119.50523,980.642205 119.50523,980.194496 C119.50523,979.746793 119.42068,979.360138 119.209392,979.014178 C118.998104,978.668225 118.723448,978.403673 118.385364,978.200168 C118.026158,977.996664 117.645828,977.915262 117.20213,977.915262 C116.758431,977.915262 116.378102,978.017017 116.018895,978.200168 C115.659689,978.403673 115.385032,978.668225 115.194867,979.014178 C114.98358,979.360138 114.89903,979.746793 114.89903,980.194496 C114.89903,980.642205 115.004703,981.02886 115.194867,981.37479 C115.406155,981.720745 115.680812,981.985332 116.018895,982.188807 C116.378102,982.39234 116.758431,982.473707 117.20213,982.473707 C117.645828,982.494077 118.026158,982.39234 118.385364,982.188807 Z M129.351492,976.633196 L129.351492,983.776156 L127.935963,983.776156 L124.238052,979.44154 L124.238052,983.776156 L122.54775,983.776156 L122.54775,976.633196 L123.963395,976.633196 L127.661075,980.967812 L127.661075,976.633196 L129.351492,976.633196 Z M137.887494,976.633196 L137.887494,983.776156 L136.471964,983.776156 L132.774573,979.44154 L132.774573,983.776156 L131.084156,983.776156 L131.084156,976.633196 L132.499685,976.633196 L136.197076,980.967812 L136.197076,976.633196 L137.887494,976.633196 Z M145.367345,982.453394 L145.367345,983.776156 L139.620157,983.776156 L139.620157,976.633196 L145.219195,976.633196 L145.219195,977.955963 L141.310575,977.955963 L141.310575,979.502589 L144.775902,979.502589 L144.775902,980.784661 L141.331408,980.784661 L141.331408,982.433023 L145.367345,982.433023 L145.367345,982.453394 Z M148.135324,983.430202 C147.522469,983.104619 147.03635,982.67724 146.698382,982.10744 C146.360415,981.53764 146.170018,980.906758 146.170018,980.194496 C146.170018,979.482235 146.339003,978.851375 146.698382,978.28157 C147.057763,977.711759 147.522469,977.284402 148.135324,976.958802 C148.74818,976.633196 149.424116,976.49074 150.205956,976.49074 C150.839645,976.49074 151.431668,976.592495 151.959453,976.816346 C152.487817,977.040198 152.910277,977.345457 153.269656,977.752459 L152.170682,978.729278 C151.663731,978.17982 151.050875,977.894915 150.311281,977.894915 C149.846576,977.894915 149.445528,977.996664 149.086148,978.17982 C148.726768,978.383318 148.452459,978.647877 148.24065,978.993831 C148.02942,979.339785 147.944928,979.72644 147.944928,980.174148 C147.944928,980.621858 148.050833,981.008513 148.24065,981.354478 C148.452459,981.700432 148.726768,981.964961 149.086148,982.168494 C149.445528,982.371969 149.846576,982.453394 150.311281,982.453394 C151.050875,982.453394 151.685143,982.168494 152.170682,981.598694 L153.269656,982.575503 C152.910277,982.98251 152.487817,983.308094 151.959453,983.53194 C151.431668,983.755786 150.861058,983.857581 150.205956,983.857581 C149.424116,983.898264 148.74818,983.735473 148.135324,983.430202 Z M156.20662,977.976317 L153.840266,977.976317 L153.840266,976.633196 L160.305637,976.633196 L160.305637,977.976317 L157.939284,977.976317 L157.939284,983.776156 L156.227454,983.776156 L156.227454,977.976317 L156.20662,977.976317 Z M166.919157,982.453394 L166.919157,983.776156 L161.171969,983.776156 L161.171969,976.633196 L166.771007,976.633196 L166.771007,977.955963 L162.862386,977.955963 L162.862386,979.502589 L166.327713,979.502589 L166.327713,980.784661 L162.88322,980.784661 L162.88322,982.433023 L166.919157,982.433023 L166.919157,982.453394 Z M168.313852,976.633196 L171.694108,976.633196 C172.497361,976.633196 173.215542,976.775645 173.828398,977.080904 C174.441254,977.386158 174.926793,977.79316 175.26534,978.322271 C175.603308,978.851381 175.772292,979.482241 175.772292,980.194502 C175.772292,980.906758 175.603308,981.53764 175.26534,982.066757 C174.926793,982.595815 174.441254,983.023194 173.828398,983.308094 C173.215542,983.613364 172.497361,983.755786 171.694108,983.755786 L168.313852,983.755786 L168.313852,976.633196 Z M171.609616,982.412711 C172.349211,982.412711 172.940654,982.209177 173.384527,981.82254 C173.828398,981.415533 174.039628,980.88641 174.039628,980.194502 C174.039628,979.502589 173.828398,978.973484 173.384527,978.566475 C172.940654,978.159467 172.349211,977.976317 171.609616,977.976317 L170.045937,977.976317 L170.045937,982.412711 L171.609616,982.412711 Z M110.990062,991.448198 L107.503728,991.448198 L106.743127,993.055918 L106.045837,993.055918 L108.919431,987.01185 L109.574417,987.01185 L112.42683,993.055918 L111.729598,993.055918 L110.990062,991.448198 Z M110.736528,990.939452 L109.236334,987.703758 L107.736196,990.939452 L110.736528,990.939452 Z M121.089859,987.03222 L121.089859,993.055918 L120.540487,993.055918 L116.525963,988.17182 L116.525963,993.055918 L115.870919,993.055918 L115.870919,987.03222 L116.42029,987.03222 L120.455995,991.936631 L120.455995,987.03222 L121.089859,987.03222 Z M129.456818,991.448198 L125.970657,991.448198 L125.210056,993.055918 L124.512766,993.055918 L127.386187,987.01185 L128.041289,987.01185 L130.915172,993.055918 L130.196412,993.055918 L129.456818,991.448198 Z M129.203342,990.939452 L127.703321,987.703758 L126.203126,990.939452 L129.203342,990.939452 Z M134.316841,987.03222 L134.971942,987.03222 L134.971942,992.526801 L138.478937,992.526801 L138.478937,993.055918 L134.295428,993.055918 L134.295428,987.03222 L134.316841,987.03222 Z M143.33896,990.980135 L143.33896,993.055918 L142.683858,993.055918 L142.683858,990.980135 L140.169355,987.03222 L140.888115,987.03222 L143.021826,990.410336 L145.176949,987.01185 L145.832051,987.01185 L143.33896,990.980135 Z M150.966383,987.58165 L148.769014,987.58165 L148.769014,987.03222 L153.840266,987.03222 L153.840266,987.58165 L151.642897,987.58165 L151.642897,993.076231 L150.987795,993.076231 L150.987795,987.58165 L150.966383,987.58165 Z M157.262769,987.03222 L157.917871,987.03222 L157.917871,993.055918 L157.262769,993.055918 L157.262769,987.03222 Z M163.369337,992.709964 C162.862386,992.445377 162.482172,992.079109 162.18645,991.611048 C161.911562,991.142985 161.763412,990.613869 161.763412,990.044069 C161.763412,989.453899 161.911562,988.945153 162.18645,988.477091 C162.46076,988.009029 162.862386,987.642704 163.369337,987.378175 C163.876289,987.113588 164.426065,986.971166 165.059755,986.971166 C165.52446,986.971166 165.94692,987.052534 166.348547,987.195012 C166.750173,987.337434 167.067307,987.561337 167.363029,987.846237 L166.93999,988.253245 C166.454451,987.785183 165.841595,987.540966 165.081168,987.540966 C164.59505,987.540966 164.130344,987.642704 163.728717,987.866549 C163.327091,988.090395 163.009958,988.375353 162.777893,988.761991 C162.545252,989.148628 162.439926,989.576007 162.439926,990.044069 C162.439926,990.512132 162.545252,990.939452 162.777893,991.326148 C163.009958,991.712785 163.327091,991.997685 163.728717,992.221531 C164.130344,992.445377 164.59505,992.547114 165.081168,992.547114 C165.841595,992.547114 166.454451,992.302955 166.93999,991.814522 L167.363029,992.221531 C167.08814,992.506431 166.750173,992.730277 166.348547,992.872755 C165.94692,993.015177 165.52446,993.096601 165.059755,993.096601 C164.426065,993.116972 163.855455,992.974493 163.369337,992.709964 Z M171.631029,992.893068 C171.20857,992.750647 170.870023,992.567485 170.63796,992.323268 L170.891435,991.834893 C171.124077,992.058739 171.419799,992.221531 171.800013,992.364009 C172.180226,992.506431 172.56044,992.567485 172.962067,992.567485 C173.532677,992.567485 173.955137,992.465747 174.230024,992.262214 C174.504334,992.058739 174.652484,991.814522 174.652484,991.488939 C174.652484,991.244722 174.567992,991.061561 174.419842,990.919139 C174.27227,990.776661 174.081874,990.654552 173.849232,990.593498 C173.638002,990.512132 173.321446,990.430707 172.919821,990.328969 C172.455115,990.206861 172.074901,990.105123 171.800013,990.003328 C171.525125,989.901591 171.271649,989.738799 171.081831,989.514953 C170.891435,989.291107 170.785531,989.006207 170.785531,988.619512 C170.785531,988.314299 170.870023,988.029342 171.039585,987.785183 C171.20857,987.540966 171.462045,987.337434 171.800013,987.195012 C172.13798,987.052534 172.581853,986.971166 173.088804,986.971166 C173.448185,986.971166 173.806986,987.01185 174.145533,987.113588 C174.483501,987.215383 174.779222,987.337434 175.032697,987.500283 L174.800056,988.009029 C174.54658,987.846237 174.250858,987.724129 173.955137,987.642704 C173.659414,987.561337 173.363693,987.520596 173.067971,987.520596 C172.518195,987.520596 172.095735,987.622392 171.820847,987.825866 C171.546537,988.029342 171.398387,988.293929 171.398387,988.619512 C171.398387,988.863728 171.482879,989.046891 171.631029,989.209682 C171.778601,989.352162 171.968997,989.474269 172.201639,989.555636 C172.433703,989.637061 172.750836,989.718428 173.13105,989.820223 C173.595756,989.921961 173.955137,990.044069 174.250858,990.145807 C174.525747,990.247544 174.779222,990.410336 174.969618,990.634182 C175.159436,990.858085 175.26534,991.142985 175.26534,991.509252 C175.26534,991.814522 175.180848,992.099422 175.011864,992.343639 C174.842302,992.587855 174.588826,992.791331 174.230024,992.933809 C173.870644,993.076231 173.448185,993.157655 172.919821,993.157655 C172.518195,993.116972 172.074901,993.035547 171.631029,992.893068 Z M86.5058865,969.685749 L97.3103767,977.535671 C98.5688478,978.450004 99.095443,980.070697 98.6147499,981.550119 L94.4878018,994.251559 C94.0071087,995.73098 92.6284644,996.732624 91.0729086,996.732624 L77.7178242,996.732624 C76.1622685,996.732624 74.7836241,995.73098 74.3029309,994.251559 L70.1759829,981.550119 C69.6952897,980.070697 70.2218851,978.450004 71.4803561,977.535671 L82.2848463,969.685749 C83.5433174,968.771417 85.2474154,968.771417 86.5058865,969.685749 Z M92.1247826,987.895404 C92.1247826,987.740731 92.1018159,987.597119 92.03301,987.475593 C92.0215423,987.442447 92.0100747,987.409301 91.987108,987.376154 L88.0869762,980.007024 L87.8116583,979.48776 C87.6166454,979.156315 87.2495864,978.924303 86.8251577,978.924303 C86.4121967,978.924303 86.0566053,979.134218 85.8615924,979.443567 L85.8042227,979.554049 C85.7927551,979.565096 85.7927551,979.576146 85.7927551,979.576146 L85.5633393,980.007024 L84.8062545,981.443286 L82.4087931,985.95093 C81.8581889,986.492297 81.0781688,986.823728 80.2293115,986.812701 C78.6577722,986.790581 77.3500832,985.553207 77.3042,984.039602 C77.2468461,982.415532 78.6004339,981.078696 80.275182,981.078696 C81.0896364,981.078696 81.8352536,981.399093 82.3743902,981.918355 L83.9688647,980.39371 C83.0282347,979.48776 81.7320134,978.935351 80.3096164,978.924303 C77.5450929,978.913255 75.2050019,981.034504 75.0673496,983.686054 C74.9067553,986.580677 77.3042,988.978138 80.2637144,988.967079 C80.4472596,988.967079 80.6308048,988.967079 80.8143501,988.944992 C80.9290579,988.933932 81.0552335,988.911846 81.1699414,988.889758 C81.2272796,988.878699 81.2846493,988.878699 81.3305199,988.86764 C82.3629225,988.668795 83.2806172,988.171632 83.9918001,987.475593 C84.1868129,987.287775 84.3588904,987.044693 84.4850661,986.801641 L85.3224558,985.221744 L86.8251577,982.393414 L90.0141068,988.403624 L90.0141068,988.414683 C90.2091197,988.746114 90.5761787,988.978138 91.0006074,988.978138 C91.620049,988.978138 92.1247826,988.492004 92.1247826,987.895404 Z M86.8375679,986.150499 C87.0978449,986.150499 87.3088412,985.939502 87.3088412,985.679225 C87.3088412,985.418948 87.0978449,985.207952 86.8375679,985.207952 C86.5772909,985.207952 86.3662946,985.418948 86.3662946,985.679225 C86.3662946,985.939502 86.5772909,986.150499 86.8375679,986.150499 Z" id="Combined-Shape"></path>
        </g>
    </g>
</svg>