<?xml version="1.0" encoding="UTF-8"?>
<svg width="176px" height="53px" viewBox="0 0 176 53" version="1.1" xmlns="http://www.w3.org/2000/svg" xmlns:xlink="http://www.w3.org/1999/xlink">
    <!-- Generator: Sketch 54.1 (76490) - https://sketchapp.com -->
    <title>Combined Shape</title>
    <desc>Created with Sketch.</desc>
    <g id="Page-1" stroke="none" stroke-width="1" fill="none" fill-rule="evenodd">
        <g id="Desktop-HD-Copy-2" transform="translate(-433.000000, -419.000000)" fill="#303F9F" fill-rule="nonzero">
            <path d="M495.14697,442.885169 C494.13275,442.346257 493.328309,441.638851 492.768802,440.695706 C492.209199,439.752562 491.894434,438.708312 491.894434,437.529362 C491.894434,436.350413 492.174236,435.306201 492.768802,434.363047 C493.363272,433.419883 494.13275,432.712515 495.14697,432.173575 C496.16119,431.634624 497.280301,431.398828 498.574322,431.398828 C499.623601,431.398828 500.602859,431.567255 501.47713,431.937779 C502.351498,432.308302 503.050953,432.813573 503.645519,433.487252 L501.826858,435.104103 C500.98755,434.194629 499.973329,433.723047 498.749234,433.723047 C497.979852,433.723047 497.315264,433.891465 496.720793,434.194629 C496.126227,434.531463 495.671514,434.969367 495.321786,435.541996 C494.972058,436.114626 494.832206,436.754626 494.832206,437.495682 C494.832206,438.23674 495.007022,438.876739 495.321786,439.449389 C495.671514,440.022018 496.126227,440.459873 496.720793,440.796765 C497.315264,441.13356 497.979852,441.268337 498.749234,441.268337 C499.973329,441.268337 501.022513,440.796765 501.826858,439.85362 L503.645519,441.470453 C503.050953,442.144141 502.351498,442.683054 501.47713,443.053568 C500.602859,443.424083 499.658565,443.592576 498.574322,443.592576 C497.315264,443.659916 496.16119,443.39046 495.14697,442.885169 Z M507.667533,442.851452 C506.653313,442.31254 505.848968,441.605133 505.254401,440.661989 C504.659835,439.718845 504.380034,438.674632 504.380034,437.529362 C504.380034,436.384102 504.659835,435.33989 505.254401,434.396727 C505.848968,433.453573 506.61835,432.746204 507.667533,432.207253 C508.681753,431.668302 509.835922,431.398828 511.129944,431.398828 C512.389002,431.398828 513.543076,431.668302 514.557296,432.207253 C515.571516,432.746204 516.375957,433.453573 516.970523,434.396727 C517.565089,435.33989 517.844795,436.384102 517.844795,437.529362 C517.844795,438.674632 517.565089,439.718845 516.970523,440.661989 C516.375957,441.605133 515.571516,442.31254 514.557296,442.851452 C513.543076,443.39046 512.389002,443.659916 511.129944,443.659916 C509.835922,443.659916 508.716717,443.39046 507.667533,442.851452 Z M513.088458,440.830387 C513.683024,440.49359 514.137642,440.05564 514.452406,439.48301 C514.802134,438.910418 514.942083,438.27042 514.942083,437.529362 C514.942083,436.788315 514.802134,436.148315 514.452406,435.575675 C514.102678,435.003046 513.648061,434.565154 513.088458,434.228309 C512.493892,433.891465 511.864363,433.756727 511.129944,433.756727 C510.395525,433.756727 509.765996,433.925154 509.17143,434.228309 C508.576864,434.565154 508.122246,435.003046 507.807482,435.575675 C507.457754,436.148315 507.317805,436.788315 507.317805,437.529362 C507.317805,438.27042 507.492717,438.910418 507.807482,439.48301 C508.15721,440.05564 508.611827,440.49359 509.17143,440.830387 C509.765996,441.167279 510.395525,441.30196 511.129944,441.30196 C511.864363,441.335677 512.493892,441.167279 513.088458,440.830387 Z M531.239821,431.634624 L531.239821,443.4578 L528.896808,443.4578 L522.775948,436.283053 L522.775948,443.4578 L519.978125,443.4578 L519.978125,431.634624 L522.32133,431.634624 L528.441807,438.80937 L528.441807,431.634624 L531.239821,431.634624 Z M545.368788,431.634624 L545.368788,443.4578 L543.025773,443.4578 L536.905775,436.283053 L536.905775,443.4578 L534.107761,443.4578 L534.107761,431.634624 L536.450775,431.634624 L542.570774,438.80937 L542.570774,431.634624 L545.368788,431.634624 Z M557.749593,441.268337 L557.749593,443.4578 L548.236728,443.4578 L548.236728,431.634624 L557.504372,431.634624 L557.504372,433.824096 L551.034742,433.824096 L551.034742,436.384102 L556.770623,436.384102 L556.770623,438.506214 L551.069226,438.506214 L551.069226,441.234618 L557.749593,441.234618 L557.749593,441.268337 Z M562.331209,442.885169 C561.316798,442.346257 560.512165,441.638851 559.952753,440.695706 C559.393343,439.752562 559.078194,438.708312 559.078194,437.529362 C559.078194,436.350413 559.357901,435.306201 559.952753,434.363047 C560.547607,433.419883 561.316798,432.712515 562.331209,432.173575 C563.345621,431.634624 564.464443,431.398828 565.758562,431.398828 C566.807458,431.398828 567.787385,431.567255 568.660986,431.937779 C569.535545,432.308302 570.23481,432.813573 570.829662,433.487252 L569.010618,435.104103 C568.171501,434.194629 567.157089,433.723047 565.932898,433.723047 C565.163708,433.723047 564.499885,433.891465 563.905033,434.194629 C563.310179,434.531463 562.856137,434.969367 562.505546,435.541996 C562.155915,436.114626 562.016062,436.754626 562.016062,437.495682 C562.016062,438.23674 562.191357,438.876739 562.505546,439.449389 C562.856137,440.022018 563.310179,440.459873 563.905033,440.796765 C564.499885,441.13356 565.163708,441.268337 565.932898,441.268337 C567.157089,441.268337 568.206943,440.796765 569.010618,439.85362 L570.829662,441.470453 C570.23481,442.144141 569.535545,442.683054 568.660986,443.053568 C567.787385,443.424083 566.8429,443.592576 565.758562,443.592576 C564.464443,443.659916 563.345621,443.39046 562.331209,442.885169 Z M575.690986,433.857785 L571.774148,433.857785 L571.774148,431.634624 L582.475762,431.634624 L582.475762,433.857785 L578.558926,433.857785 L578.558926,443.4578 L575.72547,443.4578 L575.72547,433.857785 L575.690986,433.857785 Z M593.422598,441.268337 L593.422598,443.4578 L583.909733,443.4578 L583.909733,431.634624 L593.177377,431.634624 L593.177377,433.824096 L586.707747,433.824096 L586.707747,436.384102 L592.443628,436.384102 L592.443628,438.506214 L586.742232,438.506214 L586.742232,441.234618 L593.422598,441.234618 L593.422598,441.268337 Z M595.731126,431.634624 L601.326197,431.634624 C602.655757,431.634624 603.844506,431.87041 604.858918,432.37568 C605.873329,432.880942 606.677004,433.554621 607.237374,434.430416 C607.796786,435.30621 608.076491,436.350422 608.076491,437.529371 C608.076491,438.708312 607.796786,439.752562 607.237374,440.628367 C606.677004,441.504074 605.873329,442.211482 604.858918,442.683054 C603.844506,443.188344 602.655757,443.424083 601.326197,443.424083 L595.731126,443.424083 L595.731126,431.634624 Z M601.186344,441.200997 C602.410536,441.200997 603.389506,440.864104 604.124213,440.224134 C604.858918,439.550447 605.208551,438.674632 605.208551,437.529371 C605.208551,436.384102 604.858918,435.508317 604.124213,434.834628 C603.389506,434.16094 602.410536,433.857785 601.186344,433.857785 L598.598109,433.857785 L598.598109,441.200997 L601.186344,441.200997 Z M500.847601,456.156723 L495.076948,456.156723 L493.817985,458.817854 L492.663816,458.817854 L497.420249,448.813588 L498.504396,448.813588 L503.225769,458.817854 L502.071696,458.817854 L500.847601,456.156723 Z M500.427947,455.314636 L497.944793,449.958848 L495.461735,455.314636 L500.427947,455.314636 Z M517.564993,448.847305 L517.564993,458.817854 L516.655663,458.817854 L510.010738,450.733595 L510.010738,458.817854 L508.926496,458.817854 L508.926496,448.847305 L509.835826,448.847305 L516.51581,456.965187 L516.51581,448.847305 L517.564993,448.847305 Z M531.414158,456.156723 L525.643792,456.156723 L524.38483,458.817854 L523.230661,458.817854 L527.986807,448.813588 L529.071145,448.813588 L533.828056,458.817854 L532.63835,458.817854 L531.414158,456.156723 Z M530.9946,455.314636 L528.511733,449.958848 L526.028579,455.314636 L530.9946,455.314636 Z M539.458568,448.847305 L540.542906,448.847305 L540.542906,457.942049 L546.347757,457.942049 L546.347757,458.817854 L539.423126,458.817854 L539.423126,448.847305 L539.458568,448.847305 Z M554.392167,455.381976 L554.392167,458.817854 L553.307829,458.817854 L553.307829,455.381976 L549.145771,448.847305 L550.335478,448.847305 L553.867241,454.438833 L557.434446,448.813588 L558.518783,448.813588 L554.392167,455.381976 Z M567.017236,449.756733 L563.380105,449.756733 L563.380105,448.847305 L571.774148,448.847305 L571.774148,449.756733 L568.137016,449.756733 L568.137016,458.851477 L567.052678,458.851477 L567.052678,449.756733 L567.017236,449.756733 Z M577.439144,448.847305 L578.523484,448.847305 L578.523484,458.817854 L577.439144,458.817854 L577.439144,448.847305 Z M587.546863,458.245224 C586.707747,457.807274 586.078409,457.201021 585.588924,456.426275 C585.133924,455.651528 584.888703,454.775724 584.888703,453.83258 C584.888703,452.855718 585.133924,452.013631 585.588924,451.238884 C586.042967,450.464139 586.707747,449.85779 587.546863,449.419936 C588.38598,448.981986 589.295981,448.746247 590.344879,448.746247 C591.114068,448.746247 591.813332,448.880928 592.478113,449.116761 C593.142893,449.3525 593.667819,449.72311 594.157304,450.194683 L593.457082,450.86837 C592.653407,450.093625 591.638996,449.689392 590.380321,449.689392 C589.575688,449.689392 588.806497,449.85779 588.141717,450.228304 C587.476937,450.598818 586.952011,451.070487 586.567893,451.710457 C586.18282,452.350427 586.008483,453.057834 586.008483,453.83258 C586.008483,454.607327 586.18282,455.314636 586.567893,455.954703 C586.952011,456.594673 587.476937,457.066245 588.141717,457.436759 C588.806497,457.807274 589.575688,457.975671 590.380321,457.975671 C591.638996,457.975671 592.653407,457.571535 593.457082,456.763071 L594.157304,457.436759 C593.702303,457.908332 593.142893,458.278846 592.478113,458.514679 C591.813332,458.750418 591.114068,458.885194 590.344879,458.885194 C589.295981,458.918912 588.351496,458.683077 587.546863,458.245224 Z M601.221786,458.548302 C600.522524,458.312563 599.962154,458.00939 599.578038,457.605157 L599.997596,456.796789 C600.382669,457.167303 600.872155,457.436759 601.501493,457.672593 C602.13083,457.908332 602.760168,458.00939 603.424948,458.00939 C604.369434,458.00939 605.068698,457.840991 605.523698,457.504099 C605.977741,457.167303 606.222962,456.763071 606.222962,456.224159 C606.222962,455.819926 606.08311,455.516753 605.837887,455.281014 C605.593624,455.04518 605.278477,454.843064 604.893402,454.742006 C604.54377,454.607327 604.019801,454.47255 603.355022,454.304152 C602.585831,454.102036 601.956493,453.933638 601.501493,453.765144 C601.046492,453.596746 600.626934,453.32729 600.312743,452.956776 C599.997596,452.586262 599.822301,452.114689 599.822301,451.474623 C599.822301,450.969428 599.962154,450.497761 600.242817,450.093625 C600.522524,449.689392 600.942081,449.3525 601.501493,449.116761 C602.060903,448.880928 602.79561,448.746247 603.634727,448.746247 C604.229581,448.746247 604.823476,448.813588 605.383845,448.981986 C605.943257,449.15048 606.432741,449.3525 606.852299,449.622052 L606.467225,450.464139 C606.047668,450.194683 605.558182,449.992566 605.068698,449.85779 C604.579212,449.72311 604.089728,449.655675 603.600243,449.655675 C602.690242,449.655675 601.990977,449.824169 601.535977,450.160964 C601.081934,450.497761 600.836713,450.935711 600.836713,451.474623 C600.836713,451.878854 600.976565,452.182029 601.221786,452.451485 C601.466051,452.68732 601.781198,452.889435 602.166272,453.024116 C602.550389,453.158891 603.075315,453.293572 603.704653,453.462066 C604.473844,453.630463 605.068698,453.83258 605.558182,454.000977 C606.013183,454.169375 606.432741,454.438833 606.747888,454.809347 C607.062079,455.179956 607.237374,455.651528 607.237374,456.257781 C607.237374,456.763071 607.097521,457.234643 606.817815,457.638876 C606.537152,458.043107 606.117594,458.379904 605.523698,458.615738 C604.928844,458.851477 604.229581,458.986252 603.355022,458.986252 C602.690242,458.918912 601.956493,458.784135 601.221786,458.548302 Z M460.320886,420.135066 L478.204702,433.12842 C480.287749,434.641842 481.159381,437.324448 480.363727,439.773217 L473.532717,460.796904 C472.737064,463.245673 470.455104,464.903614 467.880315,464.903614 L445.774703,464.903614 C443.199915,464.903614 440.917954,463.245673 440.1223,460.796904 L433.291291,439.773217 C432.495637,437.324448 433.367269,434.641842 435.450316,433.12842 L453.334132,420.135066 C455.41718,418.621645 458.237838,418.621645 460.320886,420.135066 Z M469.621399,450.276064 C469.621399,450.020047 469.583384,449.782337 469.469495,449.581184 C469.450514,449.526321 469.431532,449.471456 469.393517,449.416591 L462.937938,437.219055 L462.482226,436.359557 C462.159437,435.810943 461.551873,435.426913 460.84935,435.426913 C460.165808,435.426913 459.577226,435.774368 459.254437,436.286409 L459.159477,436.469281 C459.140496,436.487566 459.140496,436.505856 459.140496,436.505856 L458.760762,437.219055 L457.507619,439.596385 L453.539292,447.057531 C452.62792,447.953613 451.336815,448.502204 449.931768,448.483951 C447.330524,448.447339 445.16601,446.399211 445.090063,443.893862 C444.99513,441.205667 447.235617,438.992909 450.007694,438.992909 C451.355796,438.992909 452.589957,439.523236 453.482347,440.382729 L456.121555,437.859106 C454.564604,436.359557 452.419072,435.445199 450.064691,435.426913 C445.488794,435.408626 441.615427,438.91976 441.387582,443.30866 C441.121763,448.099901 445.090063,452.068228 449.988713,452.049923 C450.292521,452.049923 450.596329,452.049923 450.900136,452.013365 C451.090003,451.995058 451.298852,451.9585 451.488719,451.92194 C451.583626,451.903635 451.678586,451.903635 451.754512,451.88533 C453.463366,451.556197 454.982353,450.733283 456.159518,449.581184 C456.482307,449.270304 456.767133,448.867949 456.975982,448.465645 L458.362047,445.850567 L460.84935,441.169057 L466.127765,451.117281 L466.127765,451.135587 C466.450554,451.684177 467.058118,452.068228 467.760641,452.068228 C468.785953,452.068228 469.621399,451.263569 469.621399,450.276064 Z M460.869892,447.387861 C461.300707,447.387861 461.649953,447.038615 461.649953,446.607799 C461.649953,446.176984 461.300707,445.827738 460.869892,445.827738 C460.439076,445.827738 460.08983,446.176984 460.08983,446.607799 C460.08983,447.038615 460.439076,447.387861 460.869892,447.387861 Z M494.946414,465.391973 L499.349275,465.391973 L499.340521,466.538643 L496.32942,466.538643 L496.32942,468.044193 L499.095432,468.044193 L499.095432,469.199616 L496.32942,469.199616 L496.32942,471.519215 L494.946414,471.519215 L494.946414,465.391973 Z M503.59166,465.295688 C504.204387,465.295688 504.761669,465.43282 505.263522,465.707088 C505.765375,465.981357 506.160724,466.3592 506.449581,466.840628 C506.738438,467.322057 506.882864,467.857455 506.882864,468.446841 C506.882864,469.036226 506.738438,469.573084 506.449581,470.05743 C506.160724,470.541776 505.765375,470.922537 505.263522,471.199723 C504.761669,471.476909 504.204387,471.6155 503.59166,471.6155 C502.978933,471.6155 502.421651,471.476909 501.919798,471.199723 C501.417946,470.922537 501.022597,470.543235 500.73374,470.061807 C500.444882,469.580378 500.300456,469.042061 500.300456,468.446841 C500.300456,467.857455 500.444882,467.322057 500.73374,466.840628 C501.022597,466.3592 501.416487,465.981357 501.915422,465.707088 C502.414357,465.43282 502.973097,465.295688 503.59166,465.295688 Z M503.609167,466.50363 C503.270708,466.50363 502.955596,466.589702 502.663821,466.761849 C502.372046,466.933996 502.141547,467.168872 501.972318,467.466482 C501.803088,467.764092 501.718475,468.090875 501.718475,468.446841 C501.718475,468.808642 501.804547,469.138342 501.976694,469.435953 C502.148841,469.733563 502.37934,469.969897 502.668197,470.144962 C502.957054,470.320027 503.270708,470.407558 503.609167,470.407558 C503.947625,470.407558 504.258361,470.321486 504.541383,470.149339 C504.824404,469.977191 505.049068,469.740857 505.215379,469.440329 C505.381691,469.139801 505.464845,468.808642 505.464845,468.446841 C505.464845,468.090875 505.381691,467.764092 505.215379,467.466482 C505.049068,467.168872 504.824404,466.933996 504.541383,466.761849 C504.258361,466.589702 503.947625,466.50363 503.609167,466.50363 Z M512.140621,471.519215 L511.169016,469.768574 L509.75975,469.768574 L509.75975,471.519215 L508.376744,471.519215 L508.376744,465.391973 L511.037718,465.391973 C511.837181,465.391973 512.455734,465.577247 512.893397,465.947801 C513.331059,466.318355 513.549887,466.842084 513.549887,467.519001 C513.549887,467.991677 513.452144,468.395779 513.256655,468.73132 C513.061165,469.066861 512.776689,469.32216 512.403217,469.497225 L513.707444,471.519215 L512.140621,471.519215 Z M509.75975,468.613152 L511.037718,468.613152 C511.422861,468.613152 511.719008,468.524162 511.926168,468.346179 C512.133328,468.168196 512.236906,467.907062 512.236906,467.562767 C512.236906,467.224308 512.133328,466.969009 511.926168,466.796862 C511.719008,466.624715 511.422861,466.538643 511.037718,466.538643 L509.75975,466.538643 L509.75975,468.613152 Z M521.900204,468.276327 C522.28605,468.354557 522.590544,468.529561 522.813693,468.801345 C523.041277,469.078532 523.155068,469.418444 523.155068,469.821093 C523.155068,470.346288 522.947911,470.760602 522.53359,471.064048 C522.11927,471.367494 521.556153,471.519215 520.844222,471.519215 L517.929406,471.519215 L517.929406,465.391973 L520.747937,465.391973 C521.424855,465.391973 521.958795,465.529105 522.349773,465.803374 C522.740751,466.077642 522.936238,466.451108 522.936238,466.923783 C522.936238,467.250571 522.841412,467.535048 522.651759,467.777221 C522.462142,468.019347 522.203988,468.18418 521.87729,468.271726 L521.900204,468.276327 Z M520.677911,467.860376 C520.940509,467.860376 521.146207,467.800563 521.295012,467.680935 C521.443817,467.561308 521.518219,467.39354 521.518219,467.177626 C521.518219,466.967548 521.443817,466.804157 521.295012,466.687447 C521.146207,466.570737 520.940509,466.515301 520.677911,466.521136 L519.312412,466.521136 L519.312412,467.860376 L520.677911,467.860376 Z M520.677911,470.390052 C521.004699,470.390052 521.261457,470.324403 521.448193,470.193105 C521.634929,470.061806 521.728296,469.879449 521.728296,469.646029 C521.728296,469.424281 521.634929,469.249218 521.448193,469.120837 C521.261457,468.992456 521.004699,468.931185 520.677911,468.93702 L519.312412,468.93702 L519.312412,470.390052 L520.677911,470.390052 Z M529.270638,471.519215 L528.789212,470.328779 L525.953175,470.328779 L525.471749,471.519215 L524.044977,471.519215 L526.70595,465.391973 L528.132722,465.391973 L530.74993,471.519215 L529.270638,471.519215 Z M526.408341,469.217123 L528.342799,469.217123 L527.379947,466.836251 L526.408341,469.217123 Z M536.20901,465.391973 L537.521991,465.391973 L537.521991,471.519215 L536.261529,471.519215 L533.294194,467.580274 L533.294194,471.519215 L531.97246,471.519215 L531.97246,465.391973 L533.232921,465.391973 L536.20901,469.348421 L536.20901,465.391973 Z M545.134359,471.519215 L543.480004,471.519215 L541.711857,469.007046 L540.836537,469.978651 L540.836537,471.519215 L539.453531,471.519215 L539.453531,465.391973 L540.836537,465.391973 L540.836537,468.245517 L543.374965,465.391973 L544.985555,465.391973 L542.674709,467.939155 L545.134359,471.519215 Z M550.523414,467.098848 C550.208297,466.906276 549.87422,466.753097 549.521172,466.639304 C549.168125,466.525512 548.866142,466.468617 548.615216,466.468617 C548.375961,466.468617 548.18631,466.512383 548.046258,466.599915 C547.906206,466.687447 547.836181,466.815826 547.836181,466.985056 C547.836181,467.200969 547.936842,467.36582 548.138166,467.479612 C548.339491,467.593404 548.650227,467.711571 549.070382,467.834117 C549.490538,467.956662 549.836286,468.079206 550.107637,468.201751 C550.378988,468.324296 550.610945,468.508112 550.803517,468.753203 C550.996088,468.998294 551.092372,469.322159 551.092372,469.724808 C551.092372,470.115787 550.988794,470.452782 550.781634,470.735803 C550.574473,471.018825 550.289997,471.233276 549.928196,471.379164 C549.566395,471.525051 549.154999,471.597994 548.693995,471.597994 C548.197977,471.597994 547.710721,471.510462 547.23221,471.335398 C546.753699,471.160333 546.339385,470.921081 545.989255,470.617635 L546.540707,469.488472 C546.849988,469.768576 547.205948,469.993239 547.608598,470.162468 C548.011247,470.331698 548.378878,470.416311 548.711501,470.416311 C548.997441,470.416311 549.220645,470.363793 549.381121,470.258754 C549.541597,470.153715 549.621834,470.001994 549.621834,469.803587 C549.621834,469.646029 549.567857,469.516191 549.4599,469.41407 C549.351943,469.311948 549.214811,469.228794 549.048499,469.164603 C548.882188,469.100413 548.653148,469.02747 548.361373,468.945773 C547.941217,468.829063 547.598387,468.712355 547.332872,468.595645 C547.067357,468.478935 546.838317,468.300955 546.645745,468.0617 C546.453174,467.822444 546.35689,467.504415 546.35689,467.107601 C546.35689,466.739964 546.456092,466.417558 546.654499,466.140372 C546.852905,465.863186 547.130087,465.650193 547.486053,465.501388 C547.842018,465.352583 548.256332,465.278181 548.729008,465.278181 C549.149163,465.278181 549.563477,465.339453 549.971962,465.461999 C550.380447,465.584544 550.742243,465.747936 551.057359,465.952178 L550.523414,467.098848 Z" id="Combined-Shape"></path>
        </g>
    </g>
</svg>