<?xml version="1.0" encoding="UTF-8"?>
<svg width="92px" height="88px" viewBox="0 0 92 88" version="1.1" xmlns="http://www.w3.org/2000/svg" xmlns:xlink="http://www.w3.org/1999/xlink">
    <!-- Generator: Sketch 54.1 (76490) - https://sketchapp.com -->
    <title>Combined Shape</title>
    <desc>Created with Sketch.</desc>
    <g id="Page-1" stroke="none" stroke-width="1" fill="none" fill-rule="evenodd">
        <g id="Desktop-HD-Copy-10" transform="translate(-53.000000, -259.000000)" fill="#303F9F">
            <path d="M105.216651,261.169378 L139.396838,286.002739 C143.378032,288.895246 145.043925,294.022338 143.523244,298.702512 L130.467574,338.883733 C128.946893,343.563906 124.585529,346.732624 119.664502,346.732624 L77.415467,346.732624 C72.4944402,346.732624 68.1330757,343.563906 66.6123945,338.883733 L53.556725,298.702512 C52.0360438,294.022338 53.7019372,288.895246 57.6831315,286.002739 L91.8633185,261.169378 C95.8445131,258.276874 101.235456,258.276874 105.216651,261.169378 Z M122.992123,318.775929 C122.992123,318.286619 122.919468,317.832299 122.701799,317.447849 C122.665521,317.342993 122.629243,317.238133 122.556587,317.133274 L110.218454,293.820907 L109.347482,292.178205 C108.730555,291.129674 107.569358,290.395701 106.22667,290.395701 C104.920261,290.395701 103.795342,291.05977 103.178415,292.038401 L102.996925,292.387912 C102.960647,292.422859 102.960647,292.457815 102.960647,292.457815 L102.234886,293.820907 L99.8398359,298.364544 L92.2554264,312.624554 C90.5135807,314.337178 88.0459738,315.385664 85.3605994,315.350779 C80.3890084,315.280804 76.2521121,311.366349 76.1069601,306.578036 C75.9255198,301.440263 80.2076179,297.21116 85.5057118,297.21116 C88.082252,297.21116 90.4410244,298.22474 92.1465923,299.867434 L97.1907393,295.044195 C94.2150404,292.178205 90.1144223,290.430651 85.6146455,290.395701 C76.8690286,290.360751 69.4661113,297.071356 69.030646,305.459578 C68.5226033,314.616768 76.1069601,322.201176 85.4694336,322.16619 C86.050082,322.16619 86.6307305,322.16619 87.2113789,322.096319 C87.5742591,322.061331 87.9734178,321.99146 88.3362981,321.921586 C88.5176886,321.8866 88.6991786,321.8866 88.8442909,321.851614 C92.1103141,321.222564 95.0134567,319.649782 97.2632957,317.447849 C97.880222,316.853683 98.4245922,316.084689 98.8237509,315.31579 L101.472847,310.317762 L106.22667,301.370291 L116.314965,320.383693 L116.314965,320.418679 C116.931891,321.467165 118.093088,322.201176 119.435776,322.201176 C121.39539,322.201176 122.992123,320.663283 122.992123,318.775929 Z M106.26593,313.255892 C107.089321,313.255892 107.756811,312.588401 107.756811,311.76501 C107.756811,310.94162 107.089321,310.274129 106.26593,310.274129 C105.44254,310.274129 104.775049,310.94162 104.775049,311.76501 C104.775049,312.588401 105.44254,313.255892 106.26593,313.255892 Z" id="Combined-Shape"></path>
        </g>
    </g>
</svg>