<?xml version="1.0" encoding="UTF-8"?>
<svg width="176px" height="53px" viewBox="0 0 176 53" version="1.1" xmlns="http://www.w3.org/2000/svg" xmlns:xlink="http://www.w3.org/1999/xlink">
    <!-- Generator: Sketch 54.1 (76490) - https://sketchapp.com -->
    <title>Combined Shape</title>
    <desc>Created with Sketch.</desc>
    <g id="Page-1" stroke="none" stroke-width="1" fill="none" fill-rule="evenodd">
        <g id="Desktop-HD-Copy-2" transform="translate(-832.000000, -419.000000)" fill="#303F9F" fill-rule="nonzero">
            <path d="M894.14697,442.885169 C893.13275,442.346257 892.328309,441.638851 891.768802,440.695706 C891.209199,439.752562 890.894434,438.708312 890.894434,437.529362 C890.894434,436.350413 891.174236,435.306201 891.768802,434.363047 C892.363272,433.419883 893.13275,432.712515 894.14697,432.173575 C895.16119,431.634624 896.280301,431.398828 897.574322,431.398828 C898.623601,431.398828 899.602859,431.567255 900.47713,431.937779 C901.351498,432.308302 902.050953,432.813573 902.645519,433.487252 L900.826858,435.104103 C899.98755,434.194629 898.973329,433.723047 897.749234,433.723047 C896.979852,433.723047 896.315264,433.891465 895.720793,434.194629 C895.126227,434.531463 894.671514,434.969367 894.321786,435.541996 C893.972058,436.114626 893.832206,436.754626 893.832206,437.495682 C893.832206,438.23674 894.007022,438.876739 894.321786,439.449389 C894.671514,440.022018 895.126227,440.459873 895.720793,440.796765 C896.315264,441.13356 896.979852,441.268337 897.749234,441.268337 C898.973329,441.268337 900.022513,440.796765 900.826858,439.85362 L902.645519,441.470453 C902.050953,442.144141 901.351498,442.683054 900.47713,443.053568 C899.602859,443.424083 898.658565,443.592576 897.574322,443.592576 C896.315264,443.659916 895.16119,443.39046 894.14697,442.885169 Z M906.667533,442.851452 C905.653313,442.31254 904.848968,441.605133 904.254401,440.661989 C903.659835,439.718845 903.380034,438.674632 903.380034,437.529362 C903.380034,436.384102 903.659835,435.33989 904.254401,434.396727 C904.848968,433.453573 905.61835,432.746204 906.667533,432.207253 C907.681753,431.668302 908.835922,431.398828 910.129944,431.398828 C911.389002,431.398828 912.543076,431.668302 913.557296,432.207253 C914.571516,432.746204 915.375957,433.453573 915.970523,434.396727 C916.565089,435.33989 916.844795,436.384102 916.844795,437.529362 C916.844795,438.674632 916.565089,439.718845 915.970523,440.661989 C915.375957,441.605133 914.571516,442.31254 913.557296,442.851452 C912.543076,443.39046 911.389002,443.659916 910.129944,443.659916 C908.835922,443.659916 907.716717,443.39046 906.667533,442.851452 Z M912.088458,440.830387 C912.683024,440.49359 913.137642,440.05564 913.452406,439.48301 C913.802134,438.910418 913.942083,438.27042 913.942083,437.529362 C913.942083,436.788315 913.802134,436.148315 913.452406,435.575675 C913.102678,435.003046 912.648061,434.565154 912.088458,434.228309 C911.493892,433.891465 910.864363,433.756727 910.129944,433.756727 C909.395525,433.756727 908.765996,433.925154 908.17143,434.228309 C907.576864,434.565154 907.122246,435.003046 906.807482,435.575675 C906.457754,436.148315 906.317805,436.788315 906.317805,437.529362 C906.317805,438.27042 906.492717,438.910418 906.807482,439.48301 C907.15721,440.05564 907.611827,440.49359 908.17143,440.830387 C908.765996,441.167279 909.395525,441.30196 910.129944,441.30196 C910.864363,441.335677 911.493892,441.167279 912.088458,440.830387 Z M930.239821,431.634624 L930.239821,443.4578 L927.896808,443.4578 L921.775948,436.283053 L921.775948,443.4578 L918.978125,443.4578 L918.978125,431.634624 L921.32133,431.634624 L927.441807,438.80937 L927.441807,431.634624 L930.239821,431.634624 Z M944.368788,431.634624 L944.368788,443.4578 L942.025773,443.4578 L935.905775,436.283053 L935.905775,443.4578 L933.107761,443.4578 L933.107761,431.634624 L935.450775,431.634624 L941.570774,438.80937 L941.570774,431.634624 L944.368788,431.634624 Z M956.749593,441.268337 L956.749593,443.4578 L947.236728,443.4578 L947.236728,431.634624 L956.504372,431.634624 L956.504372,433.824096 L950.034742,433.824096 L950.034742,436.384102 L955.770623,436.384102 L955.770623,438.506214 L950.069226,438.506214 L950.069226,441.234618 L956.749593,441.234618 L956.749593,441.268337 Z M961.331209,442.885169 C960.316798,442.346257 959.512165,441.638851 958.952753,440.695706 C958.393343,439.752562 958.078194,438.708312 958.078194,437.529362 C958.078194,436.350413 958.357901,435.306201 958.952753,434.363047 C959.547607,433.419883 960.316798,432.712515 961.331209,432.173575 C962.345621,431.634624 963.464443,431.398828 964.758562,431.398828 C965.807458,431.398828 966.787385,431.567255 967.660986,431.937779 C968.535545,432.308302 969.23481,432.813573 969.829662,433.487252 L968.010618,435.104103 C967.171501,434.194629 966.157089,433.723047 964.932898,433.723047 C964.163708,433.723047 963.499885,433.891465 962.905033,434.194629 C962.310179,434.531463 961.856137,434.969367 961.505546,435.541996 C961.155915,436.114626 961.016062,436.754626 961.016062,437.495682 C961.016062,438.23674 961.191357,438.876739 961.505546,439.449389 C961.856137,440.022018 962.310179,440.459873 962.905033,440.796765 C963.499885,441.13356 964.163708,441.268337 964.932898,441.268337 C966.157089,441.268337 967.206943,440.796765 968.010618,439.85362 L969.829662,441.470453 C969.23481,442.144141 968.535545,442.683054 967.660986,443.053568 C966.787385,443.424083 965.8429,443.592576 964.758562,443.592576 C963.464443,443.659916 962.345621,443.39046 961.331209,442.885169 Z M974.690986,433.857785 L970.774148,433.857785 L970.774148,431.634624 L981.475762,431.634624 L981.475762,433.857785 L977.558926,433.857785 L977.558926,443.4578 L974.72547,443.4578 L974.72547,433.857785 L974.690986,433.857785 Z M992.422598,441.268337 L992.422598,443.4578 L982.909733,443.4578 L982.909733,431.634624 L992.177377,431.634624 L992.177377,433.824096 L985.707747,433.824096 L985.707747,436.384102 L991.443628,436.384102 L991.443628,438.506214 L985.742232,438.506214 L985.742232,441.234618 L992.422598,441.234618 L992.422598,441.268337 Z M994.731126,431.634624 L1000.3262,431.634624 C1001.65576,431.634624 1002.84451,431.87041 1003.85892,432.37568 C1004.87333,432.880942 1005.677,433.554621 1006.23737,434.430416 C1006.79679,435.30621 1007.07649,436.350422 1007.07649,437.529371 C1007.07649,438.708312 1006.79679,439.752562 1006.23737,440.628367 C1005.677,441.504074 1004.87333,442.211482 1003.85892,442.683054 C1002.84451,443.188344 1001.65576,443.424083 1000.3262,443.424083 L994.731126,443.424083 L994.731126,431.634624 Z M1000.18634,441.200997 C1001.41054,441.200997 1002.38951,440.864104 1003.12421,440.224134 C1003.85892,439.550447 1004.20855,438.674632 1004.20855,437.529371 C1004.20855,436.384102 1003.85892,435.508317 1003.12421,434.834628 C1002.38951,434.16094 1001.41054,433.857785 1000.18634,433.857785 L997.598109,433.857785 L997.598109,441.200997 L1000.18634,441.200997 Z M899.847601,456.156723 L894.076948,456.156723 L892.817985,458.817854 L891.663816,458.817854 L896.420249,448.813588 L897.504396,448.813588 L902.225769,458.817854 L901.071696,458.817854 L899.847601,456.156723 Z M899.427947,455.314636 L896.944793,449.958848 L894.461735,455.314636 L899.427947,455.314636 Z M916.564993,448.847305 L916.564993,458.817854 L915.655663,458.817854 L909.010738,450.733595 L909.010738,458.817854 L907.926496,458.817854 L907.926496,448.847305 L908.835826,448.847305 L915.51581,456.965187 L915.51581,448.847305 L916.564993,448.847305 Z M930.414158,456.156723 L924.643792,456.156723 L923.38483,458.817854 L922.230661,458.817854 L926.986807,448.813588 L928.071145,448.813588 L932.828056,458.817854 L931.63835,458.817854 L930.414158,456.156723 Z M929.9946,455.314636 L927.511733,449.958848 L925.028579,455.314636 L929.9946,455.314636 Z M938.458568,448.847305 L939.542906,448.847305 L939.542906,457.942049 L945.347757,457.942049 L945.347757,458.817854 L938.423126,458.817854 L938.423126,448.847305 L938.458568,448.847305 Z M953.392167,455.381976 L953.392167,458.817854 L952.307829,458.817854 L952.307829,455.381976 L948.145771,448.847305 L949.335478,448.847305 L952.867241,454.438833 L956.434446,448.813588 L957.518783,448.813588 L953.392167,455.381976 Z M966.017236,449.756733 L962.380105,449.756733 L962.380105,448.847305 L970.774148,448.847305 L970.774148,449.756733 L967.137016,449.756733 L967.137016,458.851477 L966.052678,458.851477 L966.052678,449.756733 L966.017236,449.756733 Z M976.439144,448.847305 L977.523484,448.847305 L977.523484,458.817854 L976.439144,458.817854 L976.439144,448.847305 Z M986.546863,458.245224 C985.707747,457.807274 985.078409,457.201021 984.588924,456.426275 C984.133924,455.651528 983.888703,454.775724 983.888703,453.83258 C983.888703,452.855718 984.133924,452.013631 984.588924,451.238884 C985.042967,450.464139 985.707747,449.85779 986.546863,449.419936 C987.38598,448.981986 988.295981,448.746247 989.344879,448.746247 C990.114068,448.746247 990.813332,448.880928 991.478113,449.116761 C992.142893,449.3525 992.667819,449.72311 993.157304,450.194683 L992.457082,450.86837 C991.653407,450.093625 990.638996,449.689392 989.380321,449.689392 C988.575688,449.689392 987.806497,449.85779 987.141717,450.228304 C986.476937,450.598818 985.952011,451.070487 985.567893,451.710457 C985.18282,452.350427 985.008483,453.057834 985.008483,453.83258 C985.008483,454.607327 985.18282,455.314636 985.567893,455.954703 C985.952011,456.594673 986.476937,457.066245 987.141717,457.436759 C987.806497,457.807274 988.575688,457.975671 989.380321,457.975671 C990.638996,457.975671 991.653407,457.571535 992.457082,456.763071 L993.157304,457.436759 C992.702303,457.908332 992.142893,458.278846 991.478113,458.514679 C990.813332,458.750418 990.114068,458.885194 989.344879,458.885194 C988.295981,458.918912 987.351496,458.683077 986.546863,458.245224 Z M1000.22179,458.548302 C999.522524,458.312563 998.962154,458.00939 998.578038,457.605157 L998.997596,456.796789 C999.382669,457.167303 999.872155,457.436759 1000.50149,457.672593 C1001.13083,457.908332 1001.76017,458.00939 1002.42495,458.00939 C1003.36943,458.00939 1004.0687,457.840991 1004.5237,457.504099 C1004.97774,457.167303 1005.22296,456.763071 1005.22296,456.224159 C1005.22296,455.819926 1005.08311,455.516753 1004.83789,455.281014 C1004.59362,455.04518 1004.27848,454.843064 1003.8934,454.742006 C1003.54377,454.607327 1003.0198,454.47255 1002.35502,454.304152 C1001.58583,454.102036 1000.95649,453.933638 1000.50149,453.765144 C1000.04649,453.596746 999.626934,453.32729 999.312743,452.956776 C998.997596,452.586262 998.822301,452.114689 998.822301,451.474623 C998.822301,450.969428 998.962154,450.497761 999.242817,450.093625 C999.522524,449.689392 999.942081,449.3525 1000.50149,449.116761 C1001.0609,448.880928 1001.79561,448.746247 1002.63473,448.746247 C1003.22958,448.746247 1003.82348,448.813588 1004.38385,448.981986 C1004.94326,449.15048 1005.43274,449.3525 1005.8523,449.622052 L1005.46723,450.464139 C1005.04767,450.194683 1004.55818,449.992566 1004.0687,449.85779 C1003.57921,449.72311 1003.08973,449.655675 1002.60024,449.655675 C1001.69024,449.655675 1000.99098,449.824169 1000.53598,450.160964 C1000.08193,450.497761 999.836713,450.935711 999.836713,451.474623 C999.836713,451.878854 999.976565,452.182029 1000.22179,452.451485 C1000.46605,452.68732 1000.7812,452.889435 1001.16627,453.024116 C1001.55039,453.158891 1002.07532,453.293572 1002.70465,453.462066 C1003.47384,453.630463 1004.0687,453.83258 1004.55818,454.000977 C1005.01318,454.169375 1005.43274,454.438833 1005.74789,454.809347 C1006.06208,455.179956 1006.23737,455.651528 1006.23737,456.257781 C1006.23737,456.763071 1006.09752,457.234643 1005.81781,457.638876 C1005.53715,458.043107 1005.11759,458.379904 1004.5237,458.615738 C1003.92884,458.851477 1003.22958,458.986252 1002.35502,458.986252 C1001.69024,458.918912 1000.95649,458.784135 1000.22179,458.548302 Z M859.320886,420.135066 L877.204702,433.12842 C879.287749,434.641842 880.159381,437.324448 879.363727,439.773217 L872.532717,460.796904 C871.737064,463.245673 869.455104,464.903614 866.880315,464.903614 L844.774703,464.903614 C842.199915,464.903614 839.917954,463.245673 839.1223,460.796904 L832.291291,439.773217 C831.495637,437.324448 832.367269,434.641842 834.450316,433.12842 L852.334132,420.135066 C854.41718,418.621645 857.237838,418.621645 859.320886,420.135066 Z M868.621399,450.276064 C868.621399,450.020047 868.583384,449.782337 868.469495,449.581184 C868.450514,449.526321 868.431532,449.471456 868.393517,449.416591 L861.937938,437.219055 L861.482226,436.359557 C861.159437,435.810943 860.551873,435.426913 859.84935,435.426913 C859.165808,435.426913 858.577226,435.774368 858.254437,436.286409 L858.159477,436.469281 C858.140496,436.487566 858.140496,436.505856 858.140496,436.505856 L857.760762,437.219055 L856.507619,439.596385 L852.539292,447.057531 C851.62792,447.953613 850.336815,448.502204 848.931768,448.483951 C846.330524,448.447339 844.16601,446.399211 844.090063,443.893862 C843.99513,441.205667 846.235617,438.992909 849.007694,438.992909 C850.355796,438.992909 851.589957,439.523236 852.482347,440.382729 L855.121555,437.859106 C853.564604,436.359557 851.419072,435.445199 849.064691,435.426913 C844.488794,435.408626 840.615427,438.91976 840.387582,443.30866 C840.121763,448.099901 844.090063,452.068228 848.988713,452.049923 C849.292521,452.049923 849.596329,452.049923 849.900136,452.013365 C850.090003,451.995058 850.298852,451.9585 850.488719,451.92194 C850.583626,451.903635 850.678586,451.903635 850.754512,451.88533 C852.463366,451.556197 853.982353,450.733283 855.159518,449.581184 C855.482307,449.270304 855.767133,448.867949 855.975982,448.465645 L857.362047,445.850567 L859.84935,441.169057 L865.127765,451.117281 L865.127765,451.135587 C865.450554,451.684177 866.058118,452.068228 866.760641,452.068228 C867.785953,452.068228 868.621399,451.263569 868.621399,450.276064 Z M859.869892,447.387861 C860.300707,447.387861 860.649953,447.038615 860.649953,446.607799 C860.649953,446.176984 860.300707,445.827738 859.869892,445.827738 C859.439076,445.827738 859.08983,446.176984 859.08983,446.607799 C859.08983,447.038615 859.439076,447.387861 859.869892,447.387861 Z M893.946414,465.391973 L898.349275,465.391973 L898.340521,466.538643 L895.32942,466.538643 L895.32942,468.044193 L898.095432,468.044193 L898.095432,469.199616 L895.32942,469.199616 L895.32942,471.519215 L893.946414,471.519215 L893.946414,465.391973 Z M902.59166,465.295688 C903.204387,465.295688 903.761669,465.43282 904.263522,465.707088 C904.765375,465.981357 905.160724,466.3592 905.449581,466.840628 C905.738438,467.322057 905.882864,467.857455 905.882864,468.446841 C905.882864,469.036226 905.738438,469.573084 905.449581,470.05743 C905.160724,470.541776 904.765375,470.922537 904.263522,471.199723 C903.761669,471.476909 903.204387,471.6155 902.59166,471.6155 C901.978933,471.6155 901.421651,471.476909 900.919798,471.199723 C900.417946,470.922537 900.022597,470.543235 899.73374,470.061807 C899.444882,469.580378 899.300456,469.042061 899.300456,468.446841 C899.300456,467.857455 899.444882,467.322057 899.73374,466.840628 C900.022597,466.3592 900.416487,465.981357 900.915422,465.707088 C901.414357,465.43282 901.973097,465.295688 902.59166,465.295688 Z M902.609167,466.50363 C902.270708,466.50363 901.955596,466.589702 901.663821,466.761849 C901.372046,466.933996 901.141547,467.168872 900.972318,467.466482 C900.803088,467.764092 900.718475,468.090875 900.718475,468.446841 C900.718475,468.808642 900.804547,469.138342 900.976694,469.435953 C901.148841,469.733563 901.37934,469.969897 901.668197,470.144962 C901.957054,470.320027 902.270708,470.407558 902.609167,470.407558 C902.947625,470.407558 903.258361,470.321486 903.541383,470.149339 C903.824404,469.977191 904.049068,469.740857 904.215379,469.440329 C904.381691,469.139801 904.464845,468.808642 904.464845,468.446841 C904.464845,468.090875 904.381691,467.764092 904.215379,467.466482 C904.049068,467.168872 903.824404,466.933996 903.541383,466.761849 C903.258361,466.589702 902.947625,466.50363 902.609167,466.50363 Z M911.140621,471.519215 L910.169016,469.768574 L908.75975,469.768574 L908.75975,471.519215 L907.376744,471.519215 L907.376744,465.391973 L910.037718,465.391973 C910.837181,465.391973 911.455734,465.577247 911.893397,465.947801 C912.331059,466.318355 912.549887,466.842084 912.549887,467.519001 C912.549887,467.991677 912.452144,468.395779 912.256655,468.73132 C912.061165,469.066861 911.776689,469.32216 911.403217,469.497225 L912.707444,471.519215 L911.140621,471.519215 Z M908.75975,468.613152 L910.037718,468.613152 C910.422861,468.613152 910.719008,468.524162 910.926168,468.346179 C911.133328,468.168196 911.236906,467.907062 911.236906,467.562767 C911.236906,467.224308 911.133328,466.969009 910.926168,466.796862 C910.719008,466.624715 910.422861,466.538643 910.037718,466.538643 L908.75975,466.538643 L908.75975,468.613152 Z M916.929406,465.391973 L918.469969,465.391973 L920.378168,469.15585 L922.268859,465.391973 L923.80067,465.391973 L923.80067,471.519215 L922.557715,471.519215 L922.557715,467.37895 L920.815828,470.897737 L919.923001,470.897737 L918.172361,467.37895 L918.172361,471.519215 L916.929406,471.519215 L916.929406,465.391973 Z M925.740963,465.391973 L930.40642,465.391973 L930.40642,466.538643 L927.123969,466.538643 L927.123969,467.869129 L930.073798,467.869129 L930.073798,469.015799 L927.123969,469.015799 L927.123969,470.372545 L930.502705,470.372545 L930.502705,471.519215 L925.740963,471.519215 L925.740963,465.391973 Z M935.935526,471.519215 L934.963921,469.768574 L933.554655,469.768574 L933.554655,471.519215 L932.171649,471.519215 L932.171649,465.391973 L934.832623,465.391973 C935.632086,465.391973 936.250639,465.577247 936.688301,465.947801 C937.125964,466.318355 937.344792,466.842084 937.344792,467.519001 C937.344792,467.991677 937.247049,468.395779 937.051559,468.73132 C936.85607,469.066861 936.571594,469.32216 936.198122,469.497225 L937.502349,471.519215 L935.935526,471.519215 Z M933.554655,468.613152 L934.832623,468.613152 C935.217765,468.613152 935.513912,468.524162 935.721073,468.346179 C935.928233,468.168196 936.031811,467.907062 936.031811,467.562767 C936.031811,467.224308 935.928233,466.969009 935.721073,466.796862 C935.513912,466.624715 935.217765,466.538643 934.832623,466.538643 L933.554655,466.538643 L933.554655,468.613152 Z M943.530388,467.308924 C943.32031,467.057998 943.073764,466.861053 942.790742,466.718083 C942.507721,466.575114 942.223245,466.50363 941.937305,466.50363 C941.593011,466.50363 941.277899,466.588243 940.991959,466.757473 C940.70602,466.926702 940.481357,467.157201 940.317963,467.448976 C940.154569,467.740751 940.072873,468.064616 940.072873,468.420581 C940.072873,468.776546 940.154569,469.101871 940.317963,469.396563 C940.481357,469.691256 940.70602,469.924672 940.991959,470.096819 C941.277899,470.268967 941.593011,470.355039 941.937305,470.355039 C942.211574,470.355039 942.490214,470.28939 942.773236,470.158092 C943.056258,470.026793 943.308639,469.850272 943.530388,469.628523 L944.344436,470.512596 C944.017648,470.851055 943.63397,471.119484 943.19339,471.317891 C942.75281,471.516298 942.310777,471.6155 941.86728,471.6155 C941.266223,471.6155 940.720613,471.476909 940.230431,471.199723 C939.740249,470.922537 939.355112,470.541776 939.075008,470.05743 C938.794904,469.573084 938.654854,469.033308 938.654854,468.438088 C938.654854,467.848702 938.797822,467.314762 939.083761,466.836251 C939.369701,466.357741 939.762132,465.981357 940.261067,465.707088 C940.760002,465.43282 941.312907,465.295688 941.919799,465.295688 C942.363297,465.295688 942.800952,465.387596 943.232779,465.571414 C943.664606,465.755232 944.032237,466.004696 944.335683,466.319813 L943.530388,467.308924 Z M945.750784,465.391973 L947.13379,465.391973 L947.13379,467.947908 L949.908555,467.947908 L949.908555,465.391973 L951.291561,465.391973 L951.291561,471.519215 L949.908555,471.519215 L949.908555,469.103331 L947.13379,469.103331 L947.13379,471.519215 L945.750784,471.519215 L945.750784,465.391973 Z M957.748507,471.519215 L957.267081,470.328779 L954.431043,470.328779 L953.949617,471.519215 L952.522845,471.519215 L955.183818,465.391973 L956.61059,465.391973 L959.227798,471.519215 L957.748507,471.519215 Z M954.886209,469.217123 L956.820667,469.217123 L955.857815,466.836251 L954.886209,469.217123 Z M964.686878,465.391973 L965.999859,465.391973 L965.999859,471.519215 L964.739398,471.519215 L961.772062,467.580274 L961.772062,471.519215 L960.450328,471.519215 L960.450328,465.391973 L961.71079,465.391973 L964.686878,469.348421 L964.686878,465.391973 Z M967.327428,465.391973 L972.448051,465.391973 L972.448051,466.564902 L970.574866,466.564902 L970.574866,471.519215 L969.19186,471.519215 L969.19186,466.564902 L967.327428,466.564902 L967.327428,465.391973 Z M977.810847,467.098848 C977.49573,466.906276 977.161653,466.753097 976.808605,466.639304 C976.455557,466.525512 976.153575,466.468617 975.902649,466.468617 C975.663393,466.468617 975.473742,466.512383 975.33369,466.599915 C975.193638,466.687447 975.123614,466.815826 975.123614,466.985056 C975.123614,467.200969 975.224274,467.36582 975.425599,467.479612 C975.626924,467.593404 975.937659,467.711571 976.357815,467.834117 C976.777971,467.956662 977.123719,468.079206 977.39507,468.201751 C977.66642,468.324296 977.898378,468.508112 978.090949,468.753203 C978.283521,468.998294 978.379805,469.322159 978.379805,469.724808 C978.379805,470.115787 978.276226,470.452782 978.069066,470.735803 C977.861906,471.018825 977.57743,471.233276 977.215629,471.379164 C976.853828,471.525051 976.442432,471.597994 975.981427,471.597994 C975.48541,471.597994 974.998153,471.510462 974.519643,471.335398 C974.041132,471.160333 973.626818,470.921081 973.276688,470.617635 L973.82814,469.488472 C974.137421,469.768576 974.493381,469.993239 974.89603,470.162468 C975.29868,470.331698 975.66631,470.416311 975.998934,470.416311 C976.284873,470.416311 976.508078,470.363793 976.668554,470.258754 C976.82903,470.153715 976.909267,470.001994 976.909267,469.803587 C976.909267,469.646029 976.855289,469.516191 976.747333,469.41407 C976.639376,469.311948 976.502244,469.228794 976.335932,469.164603 C976.16962,469.100413 975.940581,469.02747 975.648806,468.945773 C975.22865,468.829063 974.88582,468.712355 974.620304,468.595645 C974.354789,468.478935 974.125749,468.300955 973.933178,468.0617 C973.740607,467.822444 973.644322,467.504415 973.644322,467.107601 C973.644322,466.739964 973.743524,466.417558 973.941931,466.140372 C974.140338,465.863186 974.41752,465.650193 974.773485,465.501388 C975.129451,465.352583 975.543765,465.278181 976.01644,465.278181 C976.436596,465.278181 976.85091,465.339453 977.259395,465.461999 C977.66788,465.584544 978.029675,465.747936 978.344792,465.952178 L977.810847,467.098848 Z" id="Combined-Shape"></path>
        </g>
    </g>
</svg>