<?xml version="1.0" encoding="UTF-8"?>
<svg width="170px" height="28px" viewBox="0 0 170 28" version="1.1" xmlns="http://www.w3.org/2000/svg" xmlns:xlink="http://www.w3.org/1999/xlink">
    <!-- Generator: Sketch 54.1 (76490) - https://sketchapp.com -->
    <title>Group 2</title>
    <desc>Created with Sketch.</desc>
    <g id="Page-1" stroke="none" stroke-width="1" fill="none" fill-rule="evenodd">
        <g id="Desktop-HD-Copy-2" transform="translate(-1052.000000, -436.000000)">
            <g id="Group-2" transform="translate(1052.500000, 436.500000)">
                <g id="Group-5" transform="translate(0.000000, 0.000000)">
                    <path d="M21.915763,26.0508124 L21.915763,16.6780334 C21.915763,16.1956083 21.8813046,15.7304203 21.8123868,15.2824545 C21.7434691,14.8344878 21.617121,14.4497031 21.4333407,14.1280863 C21.2495594,13.8064696 21.0026073,13.548032 20.692477,13.3527643 C20.3823468,13.1574975 19.9745891,13.0598646 19.4691921,13.0598646 C18.9867669,13.0598646 18.5675229,13.1632398 18.2114477,13.369994 C17.8553726,13.5767472 17.5567325,13.8524144 17.3155199,14.1970041 C17.0743074,14.5415928 16.896273,14.9378649 16.7814095,15.3858307 C16.6665469,15.8337964 16.6091156,16.2989844 16.6091156,16.7814095 L16.6091156,26.0508124 L10.9578815,26.0508124 L10.9578815,16.2645288 C10.9578815,15.2767057 10.7626175,14.4956489 10.372083,13.921334 C9.98154855,13.3470183 9.36129728,13.0598646 8.51131058,13.0598646 C7.61537809,13.0598646 6.92046773,13.4159351 6.42655617,14.1280863 C5.93264554,14.8402376 5.6856935,15.7131832 5.6856935,16.7469511 L5.6856935,23.1792505 L2.84217094e-13,23.1792505 L2.84217094e-13,8.89035675 L5.47894028,8.89035675 L5.47894028,11.2680099 L5.54785802,11.2680099 C5.75461217,10.9004483 6.01304973,10.5443778 6.32318003,10.1997891 C6.63331032,9.85519951 7.00660954,9.5508171 7.44308887,9.28663259 C7.87956913,9.02244714 8.36773001,8.80995349 8.90758641,8.64914512 C9.44744282,8.48833675 10.038978,8.40793443 10.6822115,8.40793443 C11.9227326,8.40793443 12.9737135,8.66062877 13.8351866,9.16602677 C14.6966598,9.67142384 15.3685982,10.3950503 15.8510233,11.3369277 C16.425339,10.4409961 17.160451,9.72885514 18.0563835,9.20048518 C18.9523151,8.67211522 20.0434975,8.40793443 21.3299645,8.40793443 C22.501568,8.40793443 23.483632,8.62042808 24.2761874,9.04542096 C25.0687419,9.47041478 25.7062228,10.0217492 26.1886479,10.6994411 C26.6710721,11.377133 27.0213994,12.1352179 27.239639,12.9737182 C27.4578787,13.8122184 27.5669971,14.6334769 27.5669971,15.4375187 L27.5669971,26.0508124 L21.915763,26.0508124 Z M41.9707535,18.5732642 L41.2471195,18.5732642 C40.626859,18.5732642 40.0008654,18.6019794 39.3691184,18.6594116 C38.7373713,18.7168429 38.1745504,18.8259614 37.6806398,18.9867697 C37.1867282,19.1475781 36.7789706,19.3830437 36.4573539,19.693174 C36.1357371,20.0033043 35.9749316,20.4110619 35.9749316,20.916459 C35.9749316,21.2380757 36.0495916,21.513743 36.1989135,21.7434691 C36.3482354,21.9731952 36.5377571,22.1569737 36.7674832,22.2948091 C36.9972093,22.4326446 37.2613901,22.5302766 37.560034,22.5877088 C37.8586778,22.6451401 38.1458315,22.6738553 38.4215025,22.6738553 C39.570133,22.6738553 40.4488228,22.3579865 41.0575969,21.7262394 C41.6663711,21.0944933 41.9707535,20.2387764 41.9707535,19.1590636 L41.9707535,18.5732642 Z M31.5986705,11.2335515 C32.6094655,10.2687013 33.7867945,9.54507481 35.1306927,9.06265063 C36.4745901,8.58022552 37.847183,8.33901669 39.2485126,8.33901669 C40.695787,8.33901669 41.9190608,8.51705193 42.9183694,8.87312708 C43.917678,9.22920316 44.72745,9.78053762 45.3477106,10.5271472 C45.9679712,11.2737569 46.4216737,12.2156202 46.7088311,13.3527643 C46.9959885,14.4899084 47.1395653,15.8395294 47.1395653,17.4016673 L47.1395653,26.0508124 L41.9707535,26.0508124 L41.9707535,24.2244993 L41.8673773,24.2244993 C41.430898,24.9366496 40.7704451,25.4879841 39.8859991,25.8785186 C39.001554,26.269053 38.0424619,26.464318 37.0086939,26.464318 C36.3195156,26.464318 35.6073756,26.3724283 34.8722515,26.1886479 C34.1371283,26.0048667 33.4651889,25.7062275 32.8564148,25.2927201 C32.2476406,24.8792127 31.7479943,24.3278783 31.3574598,23.6386999 C30.9669253,22.9495216 30.7716613,22.099548 30.7716613,21.0887529 C30.7716613,19.8482317 31.1105021,18.848938 31.788194,18.0908419 C32.4658859,17.3327459 33.3388324,16.746953 34.4070588,16.3334456 C35.4752852,15.9199392 36.6640996,15.6442719 37.9735386,15.5064365 C39.2829775,15.3686001 40.5579384,15.2996832 41.7984596,15.2996832 L41.7984596,15.0240132 C41.7984596,14.1740265 41.4998204,13.548033 40.9025327,13.146012 C40.3052441,12.7439911 39.5701321,12.5429839 38.6971725,12.5429839 C37.8931316,12.5429839 37.117817,12.7152759 36.3712074,13.0598646 C35.6245968,13.4044543 34.9871168,13.8179551 34.4587469,14.3003802 L31.5986705,11.2335515 Z M64.3344804,26.0508124 L64.3344804,23.8109938 L64.2655626,23.8109938 C63.7142198,24.6839534 62.9274197,25.3558918 61.9051382,25.8268305 C60.8828576,26.2977692 59.7974174,26.5332348 58.6487869,26.5332348 C57.3623208,26.5332348 56.2137071,26.2805404 55.202912,25.7751424 C54.1921169,25.2697453 53.3364001,24.597806 52.6357353,23.7593058 C51.9350714,22.9208055 51.4009657,21.950227 51.0334041,20.8475422 C50.6658425,19.7448565 50.4820641,18.5962427 50.4820641,17.4016673 C50.4820641,16.207091 50.6715848,15.0642214 51.0506338,13.9730221 C51.4296818,12.8818229 51.9695298,11.9227308 52.6701946,11.095716 C53.3708594,10.2687022 54.220833,9.61399255 55.2201417,9.13156744 C56.2194503,8.64914326 57.3393479,8.40793443 58.5798691,8.40793443 C59.8433632,8.40793443 60.9115737,8.64914326 61.7845333,9.13156744 C62.657492,9.61399255 63.3351745,10.1423551 63.8175987,10.7166699 L63.8865165,10.7166699 L63.8865165,2.66453526e-14 L69.5377506,2.66453526e-14 L69.5377506,26.0508124 L64.3344804,26.0508124 Z M64.1277281,17.4361257 C64.1277281,16.8847829 64.0300952,16.3449349 63.8348284,15.8165649 C63.6395616,15.2881949 63.3638944,14.8172628 63.0078183,14.4037564 C62.6517432,13.990249 62.2210126,13.6571514 61.7156156,13.4044524 C61.2102176,13.1517534 60.6359112,13.0254062 59.9926777,13.0254062 C59.3264722,13.0254062 58.7406794,13.1517534 58.2352823,13.4044524 C57.7298843,13.6571514 57.3048979,13.9845058 56.9603083,14.3865267 C56.6157196,14.7885476 56.3572811,15.2537356 56.1849863,15.7821056 C56.0126924,16.3104765 55.9265459,16.8503245 55.9265459,17.4016673 C55.9265459,17.9530102 56.0126924,18.4986014 56.1849863,19.0384578 C56.3572811,19.5783142 56.6157196,20.0549887 56.9603083,20.468496 C57.3048979,20.8820025 57.7298843,21.2151001 58.2352823,21.4677991 C58.7406794,21.7204981 59.3264722,21.8468452 59.9926777,21.8468452 C60.6359112,21.8468452 61.2102176,21.7204981 61.7156156,21.4677991 C62.2210126,21.2151001 62.6517432,20.8820025 63.0078183,20.468496 C63.3638944,20.0549887 63.6395616,19.5840574 63.8348284,19.0556866 C64.0300952,18.5273166 64.1277281,17.9874686 64.1277281,17.4361257 Z" id="maddeals." fill="#2A2A2A" fill-rule="nonzero"></path>
                    <path d="M91.315679,26.0508124 L91.315679,23.8109938 L91.2467613,23.8109938 C90.6954184,24.6839534 89.9086184,25.3558918 88.8863369,25.8268305 C87.8640563,26.2977692 86.7786161,26.5332348 85.6299855,26.5332348 C84.3435195,26.5332348 83.1949057,26.2805404 82.1841107,25.7751424 C81.1733165,25.2697453 80.3175987,24.597806 79.6169339,23.7593058 C78.9162701,22.9208055 78.3821644,21.950227 78.0146028,20.8475422 C77.6470412,19.7448565 77.4632627,18.5962427 77.4632627,17.4016673 C77.4632627,16.207091 77.6527835,15.0642214 78.0318325,13.9730221 C78.4108805,12.8818229 78.9507285,11.9227308 79.6513933,11.095716 C80.3520581,10.2687022 81.2020317,9.61399255 82.2013403,9.13156744 C83.200649,8.64914326 84.3205476,8.40793443 85.5610678,8.40793443 C86.8245619,8.40793443 87.8927724,8.64914326 88.765732,9.13156744 C89.6386906,9.61399255 90.3163732,10.1423551 90.7987974,10.7166699 L90.8677151,10.7166699 L90.8677151,5.5067062e-14 L96.5189493,5.5067062e-14 L96.5189493,26.0508124 L91.315679,26.0508124 Z M91.1089268,17.4361257 C91.1089268,16.8847829 91.0112948,16.3449349 90.8160271,15.8165649 C90.6207603,15.2881949 90.3450931,14.8172628 89.989017,14.4037564 C89.6329418,13.990249 89.2022113,13.6571514 88.6968142,13.4044524 C88.1914162,13.1517534 87.6171098,13.0254062 86.9738773,13.0254062 C86.3076709,13.0254062 85.721878,13.1517534 85.216481,13.4044524 C84.711083,13.6571514 84.2860966,13.9845058 83.941507,14.3865267 C83.5969183,14.7885476 83.3384798,15.2537356 83.166185,15.7821056 C82.9938911,16.3104765 82.9077446,16.8503245 82.9077446,17.4016673 C82.9077446,17.9530102 82.9938911,18.4986014 83.166185,19.0384578 C83.3384798,19.5783142 83.5969183,20.0549887 83.941507,20.468496 C84.2860966,20.8820025 84.711083,21.2151001 85.216481,21.4677991 C85.721878,21.7204981 86.3076709,21.8468452 86.9738773,21.8468452 C87.6171098,21.8468452 88.1914162,21.7204981 88.6968142,21.4677991 C89.2022113,21.2151001 89.6329418,20.8820025 89.989017,20.468496 C90.3450931,20.0549887 90.6207603,19.5840574 90.8160271,19.0556866 C91.0112948,18.5273166 91.1089268,17.9874686 91.1089268,17.4361257 Z M116.585426,17.6773373 L116.585426,18.366512 C116.585426,18.5962381 116.573941,18.8144749 116.550968,19.0212281 L104.11136,19.0212281 C104.157306,19.5036533 104.300882,19.9401261 104.542094,20.3306605 C104.783307,20.721195 105.093433,21.0600358 105.472481,21.3471932 C105.851529,21.6343516 106.276516,21.8583307 106.747455,22.0191391 C107.061414,22.126345 107.549579,22.2067483 108.211951,22.2603507 L108.143033,26.6021525 C106.473703,26.4681477 105.25616,26.2671386 104.490406,25.9991244 C103.341776,25.5971034 102.336739,25.0113106 101.475266,24.2417281 C100.613793,23.4721455 99.9361108,22.5245399 99.4422002,21.3988813 C98.9482887,20.2732237 98.7013366,18.9867763 98.7013366,17.5395019 C98.7013366,16.1381723 98.9425454,14.8689546 99.4249706,13.7318105 C99.9073957,12.5946664 100.562105,11.6298311 101.389119,10.8372757 C102.216133,10.0447203 103.192455,9.43021222 104.318112,8.99373289 C105.443771,8.55725356 106.661301,8.33901669 107.97074,8.33901669 C109.234234,8.33901669 110.394333,8.55151034 111.451073,8.97650322 C112.507814,9.40149704 113.415218,10.0160051 114.173315,10.8200469 C114.931411,11.6240879 115.522947,12.6004096 115.94794,13.7490402 C116.372933,14.8976707 116.585426,16.2070901 116.585426,17.6773373 Z M111.382156,15.5064365 C111.382156,14.610504 111.100746,13.8409336 110.537916,13.1977001 C109.975088,12.5544666 109.130857,12.2328555 108.005199,12.2328555 C107.453856,12.2328555 106.948466,12.319001 106.489014,12.4912958 C106.029561,12.6635907 105.627547,12.8990563 105.282958,13.1977001 C104.938368,13.496344 104.662701,13.8466712 104.455948,14.2486921 C104.249195,14.6507121 104.134333,15.0699562 104.11136,15.5064365 L111.382156,15.5064365 Z M118.423227,11.2335515 C119.434021,10.2687013 120.61135,9.54507481 121.955248,9.06265063 C123.299145,8.58022552 124.671738,8.33901669 126.073068,8.33901669 C127.520342,8.33901669 128.743616,8.51705193 129.742925,8.87312708 C130.742233,9.22920316 131.552005,9.78053762 132.172266,10.5271472 C132.792527,11.2737569 133.246229,12.2156202 133.533386,13.3527643 C133.820545,14.4899084 133.964122,15.8395294 133.964122,17.4016673 L133.964122,26.0508124 L128.795309,26.0508124 L128.795309,24.2244993 L128.691933,24.2244993 C128.255453,24.9366496 127.595,25.4879841 126.710555,25.8785186 C125.826109,26.269053 124.867017,26.464318 123.833249,26.464318 C123.144071,26.464318 122.431931,26.3724283 121.696808,26.1886479 C120.961684,26.0048667 120.289745,25.7062275 119.680971,25.2927201 C119.072196,24.8792127 118.57255,24.3278783 118.182015,23.6386999 C117.791481,22.9495216 117.596217,22.099548 117.596217,21.0887529 C117.596217,19.8482317 117.935057,18.848938 118.612749,18.0908419 C119.290441,17.3327459 120.163388,16.746953 121.231614,16.3334456 C122.299841,15.9199392 123.488656,15.6442719 124.798095,15.5064365 C126.107534,15.3686001 127.382495,15.2996832 128.623015,15.2996832 L128.623015,15.0240132 C128.623015,14.1740265 128.324376,13.548033 127.727088,13.146012 C127.1298,12.7439911 126.394687,12.5429839 125.521728,12.5429839 C124.717687,12.5429839 123.942372,12.7152759 123.195763,13.0598646 C122.449153,13.4044543 121.811672,13.8179551 121.283302,14.3003802 L118.423227,11.2335515 Z M128.795309,18.5732642 L128.071676,18.5732642 C127.451415,18.5732642 126.825421,18.6019794 126.193674,18.6594116 C125.561927,18.7168429 124.999107,18.8259614 124.505195,18.9867697 C124.011284,19.1475781 123.603526,19.3830437 123.281909,19.693174 C122.960293,20.0033043 122.799487,20.4110619 122.799487,20.916459 C122.799487,21.2380757 122.874147,21.513743 123.023469,21.7434691 C123.172791,21.9731952 123.362312,22.1569737 123.592039,22.2948091 C123.821765,22.4326446 124.085945,22.5302766 124.384589,22.5877088 C124.683233,22.6451401 124.970387,22.6738553 125.246058,22.6738553 C126.394689,22.6738553 127.273378,22.3579865 127.882152,21.7262394 C128.490926,21.0944933 128.795309,20.2387764 128.795309,19.1590636 L128.795309,18.5732642 Z M136.801224,26.0508124 L136.801224,3.07831515 L142.521377,3.07831515 L142.521377,26.0508124 L136.801224,26.0508124 Z M157.097426,13.9557924 C156.637974,13.5193131 156.098126,13.1517562 155.477866,12.8531123 C154.857605,12.5544685 154.202895,12.4051484 153.513717,12.4051484 C152.985347,12.4051484 152.497186,12.5085236 152.04922,12.7152778 C151.601255,12.922031 151.377274,13.2781015 151.377274,13.7834986 C151.377274,14.2659237 151.624227,14.6105077 152.118137,14.8172609 C152.612049,15.0240151 153.410335,15.2537375 154.513021,15.5064365 C155.156253,15.6442719 155.80522,15.8395359 156.45994,16.0922349 C157.114659,16.3449339 157.706195,16.6780315 158.234565,17.091538 C158.762935,17.5050453 159.187922,18.0104349 159.509539,18.6077236 C159.831156,19.2050113 159.991961,19.9171513 159.991961,20.7441651 C159.991961,21.8238779 159.773724,22.7370261 159.337245,23.4836357 C158.900766,24.2302463 158.332202,24.8332679 157.631537,25.2927201 C156.930872,25.7521723 156.144072,26.0852699 155.271113,26.2920241 C154.398154,26.4987773 153.525207,26.6021525 152.652248,26.6021525 C151.250919,26.6021525 149.878326,26.3781733 148.534428,25.9302066 C147.19053,25.4822409 146.070632,24.821788 145.1747,23.9488293 L148.344905,20.6063306 C148.850302,21.1576734 149.470553,21.6171182 150.205678,21.9846807 C150.940801,22.3522423 151.721858,22.5360208 152.548872,22.5360208 C153.008325,22.5360208 153.462026,22.4269023 153.909993,22.2086627 C154.357959,21.9904221 154.581938,21.6056373 154.581938,21.0542945 C154.581938,20.5259245 154.30627,20.1353956 153.754928,19.8826966 C153.203586,19.6299986 152.342126,19.3658168 151.170522,19.0901459 C150.573234,18.9523104 149.975955,18.7685319 149.378667,18.5388058 C148.781379,18.3090797 148.247274,17.9989541 147.776335,17.6084196 C147.305397,17.2178851 146.920611,16.7354675 146.621967,16.1611527 C146.323323,15.5868369 146.174004,14.8976688 146.174004,14.093627 C146.174004,13.05986 146.39224,12.1811702 146.82872,11.4575335 C147.2652,10.7338958 147.82802,10.1423597 148.517199,9.68290749 C149.206377,9.22345527 149.970204,8.88461446 150.808706,8.66637479 C151.647206,8.44813513 152.47995,8.33901669 153.306965,8.33901669 C154.593431,8.33901669 155.851162,8.54002389 157.080197,8.94204482 C158.309232,9.34406575 159.348727,9.94708734 160.198713,10.7511292 L157.097426,13.9557924 Z M169.496832,23.0184431 C169.496832,23.9832924 169.168336,24.7873221 168.511332,25.4305547 C167.854329,26.0737881 167.069277,26.3954002 166.156153,26.3954002 C165.688456,26.3954002 165.248605,26.3092537 164.836585,26.1369599 C164.424566,25.964665 164.062663,25.7291994 163.750865,25.4305547 C163.439066,25.1319108 163.194085,24.7815845 163.015916,24.3795635 C162.837745,23.9775426 162.748661,23.5353266 162.748661,23.0529015 C162.748661,22.5934493 162.837745,22.1569765 163.015916,21.7434691 C163.194085,21.3299617 163.439066,20.9681489 163.750865,20.6580186 C164.062663,20.3478883 164.424566,20.1009363 164.836585,19.917156 C165.248605,19.7333747 165.688456,19.6414859 166.156153,19.6414859 C167.069277,19.6414859 167.854329,19.9630971 168.511332,20.6063306 C169.168336,21.2495641 169.496832,22.0535929 169.496832,23.0184431 Z" id="Combined-Shape" fill="#303F9F"></path>
                </g>
            </g>
        </g>
    </g>
</svg>