<?xml version="1.0" encoding="UTF-8"?>
<svg width="180px" height="28px" viewBox="0 0 180 28" version="1.1" xmlns="http://www.w3.org/2000/svg" xmlns:xlink="http://www.w3.org/1999/xlink">
    <!-- Generator: Sketch 54.1 (76490) - https://sketchapp.com -->
    <title>Group 3</title>
    <desc>Created with Sketch.</desc>
    <g id="Page-1" stroke="none" stroke-width="1" fill="none" fill-rule="evenodd">
        <g id="Desktop-HD-Copy-2" transform="translate(-216.000000, -435.000000)" fill-rule="nonzero">
            <g id="Group-3" transform="translate(216.000000, 435.961538)">
                <path d="M-4.26325641e-14,3.92313837 L4.91216485,3.13191719 L4.91216485,8.24188734 L10.8133562,8.24188734 L10.8133562,12.3298635 L4.91216485,12.3298635 L4.91216485,18.4288601 C4.91216485,19.4618485 5.09348456,20.286029 5.45612942,20.9014263 C5.81877428,21.5168236 6.54954765,21.8245177 7.64847145,21.8245177 C8.17595488,21.8245177 8.719914,21.7750669 9.28036515,21.6761637 C9.84081629,21.5772605 10.3518082,21.4398971 10.8133562,21.2640693 L11.5056747,25.0883051 C10.9122559,25.3300683 10.2529115,25.5388607 9.52762177,25.7146885 C8.80233205,25.8905163 7.91221712,25.9784289 6.85725027,25.9784289 C5.51656322,25.9784289 4.40666683,25.7971092 3.52752778,25.4344643 C2.64838874,25.0718194 1.94508805,24.5663221 1.41760462,23.9179571 C0.890121195,23.269592 0.521987242,22.4838733 0.313191719,21.5607773 C0.104396196,20.6376813 -4.26325641e-14,19.6156974 -4.26325641e-14,18.4947952 L-4.26325641e-14,3.92313837 Z M14.8024297,25.5828183 L14.8024297,0.791221185 L19.7145945,3.19744231e-14 L19.7145945,8.30782244 C20.0442717,8.19793006 20.467351,8.09353386 20.9838452,7.99463072 C21.5003393,7.89572758 22.0003422,7.84627675 22.4838687,7.84627675 C23.8904912,7.84627675 25.0608274,8.03858553 25.9949127,8.42320886 C26.9289979,8.80783219 27.6762549,9.35179132 28.236706,10.0551026 C28.7971571,10.7584138 29.1927638,11.5935833 29.4235378,12.5606363 C29.6543118,13.5276893 29.7696971,14.6046184 29.7696971,15.7914561 L29.7696971,25.5828183 L24.8575322,25.5828183 L24.8575322,16.384872 C24.8575322,14.8024217 24.6542343,13.6815363 24.2476326,13.022182 C23.8410308,12.3628277 23.0882792,12.0331555 21.9893554,12.0331555 C21.5497859,12.0331555 21.1376957,12.0716173 20.7530723,12.1485419 C20.368449,12.2254666 20.0222932,12.3078846 19.7145945,12.3957986 L19.7145945,25.5828183 L14.8024297,25.5828183 Z M40.8467937,22.1541932 C41.3303202,22.1541932 41.7918612,22.1432041 42.2314307,22.1212256 C42.6710003,22.0992472 43.0226506,22.0662799 43.2863923,22.022323 L43.2863923,18.2969899 C43.088586,18.2530329 42.791881,18.2090767 42.3962685,18.1651197 C42.0006559,18.1211627 41.6380165,18.0991846 41.3083394,18.0991846 C40.8467914,18.0991846 40.4127229,18.1266573 40.0061212,18.1816035 C39.5995194,18.2365497 39.2423745,18.3409458 38.9346758,18.4947952 C38.6269771,18.6486445 38.3852175,18.8574369 38.2093897,19.1211786 C38.0335619,19.3849204 37.9456493,19.7145926 37.9456493,20.1102051 C37.9456493,20.8794518 38.2038926,21.4124219 38.7203867,21.7091313 C39.2368809,22.0058406 39.9456762,22.1541932 40.8467937,22.1541932 Z M40.4511831,7.78034165 C41.9017625,7.78034165 43.1105605,7.94517775 44.0776135,8.27485489 C45.0446665,8.60453203 45.8193961,9.07706218 46.4018257,9.69245951 C46.9842554,10.3078568 47.3963456,11.0551138 47.6381088,11.9342529 C47.879872,12.8133919 48.0007519,13.7914194 48.0007519,14.8683648 L48.0007519,25.0883051 C47.2974406,25.2421544 46.3194131,25.4234741 45.06664,25.6322696 C43.8138668,25.8410652 42.2973747,25.9454613 40.5171182,25.9454613 C39.3962159,25.9454613 38.3797267,25.8465597 37.4676198,25.6487534 C36.555513,25.4509471 35.7697944,25.1267694 35.1104401,24.6762107 C34.4510858,24.225652 33.9455884,23.6377365 33.5939328,22.9124468 C33.2422772,22.1871571 33.066452,21.2970421 33.066452,20.2420753 C33.066452,19.2310654 33.2697499,18.3739177 33.6763517,17.6706065 C34.0829534,16.9672952 34.6269126,16.4068525 35.3082454,15.9892614 C35.9895781,15.5716704 36.7698023,15.2694708 37.6489414,15.0826538 C38.5280804,14.8958368 39.4401735,14.8024297 40.385248,14.8024297 C41.0226238,14.8024297 41.588561,14.8299023 42.0830768,14.8848485 C42.5775925,14.9397947 42.9786936,15.0112237 43.2863923,15.0991376 L43.2863923,14.6375919 C43.2863923,13.8024098 43.0336436,13.1320763 42.5281387,12.6265714 C42.0226337,12.1210665 41.1435079,11.8683178 39.8907347,11.8683178 C39.0555527,11.8683178 38.2313722,11.9287577 37.4181685,12.0496393 C36.6049649,12.1705209 35.9016642,12.3408515 35.3082454,12.5606363 L34.6818619,8.60453038 C34.9675821,8.51661648 35.324727,8.42320936 35.7533073,8.32430621 C36.1818876,8.22540307 36.6489232,8.13749049 37.1544281,8.06056582 C37.6599331,7.98364115 38.1929032,7.91770671 38.7533543,7.86276052 C39.3138054,7.80781433 39.8797427,7.78034165 40.4511831,7.78034165 Z M52.451371,8.83530323 C53.2865531,8.59353999 54.3634823,8.36826399 55.6821909,8.15946847 C57.0008994,7.95067294 58.3855227,7.84627675 59.8361021,7.84627675 C61.30866,7.84627675 62.5339416,8.03858553 63.5119838,8.42320886 C64.4900261,8.80783219 65.2647557,9.35179132 65.8361961,10.0551026 C66.4076364,10.7584138 66.8142322,11.5935833 67.0559954,12.5606363 C67.2977586,13.5276893 67.4186384,14.6046184 67.4186384,15.7914561 L67.4186384,25.5828183 L62.5064736,25.5828183 L62.5064736,16.384872 C62.5064736,14.8024217 62.2976812,13.6815363 61.8800902,13.022182 C61.4624991,12.3628277 60.6822749,12.0331555 59.5393941,12.0331555 C59.1877386,12.0331555 58.81411,12.0496391 58.4184975,12.0826068 C58.0228849,12.1155746 57.6712346,12.1540363 57.3635359,12.1979933 L57.3635359,25.5828183 L52.451371,25.5828183 L52.451371,8.83530323 Z M76.7814225,14.5057217 C77.264949,13.9782383 77.7649518,13.4287846 78.281446,12.8573443 C78.7979401,12.2859039 79.297943,11.7199666 79.7814695,11.1595155 C80.264996,10.5990643 80.7210424,10.0660943 81.1496228,9.56058931 C81.5782031,9.05508436 81.946337,8.61552143 82.2540357,8.24188734 L88.0892919,8.24188734 C86.9244327,9.58257438 85.7870636,10.8628014 84.6771505,12.0826068 C83.5672375,13.3024122 82.3529449,14.5606611 81.0342363,15.8573912 C81.6935906,16.4508101 82.3749131,17.1596053 83.0782244,17.9837982 C83.7815356,18.807991 84.4628582,19.6596442 85.1222125,20.5387833 C85.7815667,21.4179223 86.3859658,22.2970482 86.9354277,23.1761872 C87.4848896,24.0553262 87.9464306,24.8575286 88.3200647,25.5828183 L82.6826138,25.5828183 C82.3309582,25.011378 81.929857,24.3795063 81.4792982,23.6871842 C81.0287395,22.9948622 80.5507148,22.3025506 80.0452099,21.6102286 C79.5397049,20.9179066 79.0067348,20.2530677 78.4462837,19.6156919 C77.8858326,18.978316 77.3308844,18.4398515 76.7814225,18.000282 L76.7814225,25.5828183 L71.8692576,25.5828183 L71.8692576,0.791221185 L76.7814225,3.19744231e-14 L76.7814225,14.5057217 Z M112.6666,16.9123528 C112.6666,15.6595797 112.869897,14.4782543 113.2765,13.3683413 C113.683102,12.2584282 114.271017,11.2913898 115.040263,10.4671969 C115.80951,9.64300407 116.743581,8.98915421 117.842505,8.50562774 C118.941429,8.02210126 120.194184,7.78034165 121.600806,7.78034165 C122.523901,7.78034165 123.370061,7.8627597 124.139307,8.02759827 C124.908553,8.19243684 125.65581,8.42870192 126.3811,8.73640058 L125.359106,12.659539 C124.897559,12.4837112 124.392061,12.3298641 123.842599,12.1979933 C123.293137,12.0661224 122.67775,12.000188 121.996416,12.000188 C120.545837,12.000188 119.463413,12.45074 118.749113,13.3518575 C118.034812,14.252975 117.677667,15.4397949 117.677667,16.9123528 C117.677667,18.4728246 118.012834,19.6816226 118.683178,20.5387833 C119.353521,21.3959439 120.523858,21.8245177 122.194222,21.8245177 C122.787641,21.8245177 123.425006,21.7695723 124.10634,21.6596799 C124.787673,21.5497876 125.41405,21.3739623 125.98549,21.1321991 L126.677808,25.1542402 C126.106368,25.3960034 125.392078,25.6047958 124.534918,25.7806236 C123.677757,25.9564514 122.732697,26.044364 121.699708,26.044364 C120.117258,26.044364 118.754613,25.808099 117.611732,25.3355617 C116.468851,24.8630244 115.529286,24.2201637 114.793007,23.40696 C114.056728,22.5937564 113.518263,21.6322125 113.177597,20.5222995 C112.836931,19.4123865 112.6666,18.209083 112.6666,16.9123528 Z M136.601041,22.1541932 C137.084568,22.1541932 137.546108,22.1432041 137.985678,22.1212256 C138.425248,22.0992472 138.776898,22.0662799 139.040639,22.022323 L139.040639,18.2969899 C138.842833,18.2530329 138.546128,18.2090767 138.150516,18.1651197 C137.754903,18.1211627 137.392264,18.0991846 137.062586,18.0991846 C136.601039,18.0991846 136.16697,18.1266573 135.760368,18.1816035 C135.353766,18.2365497 134.996621,18.3409458 134.688923,18.4947952 C134.381224,18.6486445 134.139465,18.8574369 133.963637,19.1211786 C133.787809,19.3849204 133.699896,19.7145926 133.699896,20.1102051 C133.699896,20.8794518 133.958139,21.4124219 134.474634,21.7091313 C134.991128,22.0058406 135.699923,22.1541932 136.601041,22.1541932 Z M136.20543,7.78034165 C137.65601,7.78034165 138.864808,7.94517775 139.831861,8.27485489 C140.798913,8.60453203 141.573643,9.07706218 142.156073,9.69245951 C142.738502,10.3078568 143.150593,11.0551138 143.392356,11.9342529 C143.634119,12.8133919 143.754999,13.7914194 143.754999,14.8683648 L143.754999,25.0883051 C143.051688,25.2421544 142.07366,25.4234741 140.820887,25.6322696 C139.568114,25.8410652 138.051622,25.9454613 136.271365,25.9454613 C135.150463,25.9454613 134.133974,25.8465597 133.221867,25.6487534 C132.30976,25.4509471 131.524041,25.1267694 130.864687,24.6762107 C130.205333,24.225652 129.699835,23.6377365 129.34818,22.9124468 C128.996524,22.1871571 128.820699,21.2970421 128.820699,20.2420753 C128.820699,19.2310654 129.023997,18.3739177 129.430599,17.6706065 C129.837201,16.9672952 130.381159,16.4068525 131.062492,15.9892614 C131.743826,15.5716704 132.524049,15.2694708 133.403188,15.0826538 C134.282328,14.8958368 135.194421,14.8024297 136.139495,14.8024297 C136.776871,14.8024297 137.342809,14.8299023 137.837324,14.8848485 C138.331839,14.9397947 138.732941,15.0112237 139.040639,15.0991376 L139.040639,14.6375919 C139.040639,13.8024098 138.787891,13.1320763 138.282386,12.6265714 C137.776881,12.1210665 136.897755,11.8683178 135.644982,11.8683178 C134.809799,11.8683178 133.985619,11.9287577 133.172416,12.0496393 C132.359212,12.1705209 131.655911,12.3408515 131.062492,12.5606363 L130.436109,8.60453038 C130.72183,8.51661648 131.078974,8.42320936 131.507554,8.32430621 C131.936135,8.22540307 132.40317,8.13749049 132.908675,8.06056582 C133.41418,7.98364115 133.94715,7.91770671 134.507601,7.86276052 C135.068053,7.80781433 135.63399,7.78034165 136.20543,7.78034165 Z M153.183718,22.0552905 C154.084836,22.0552905 154.722202,21.9673779 155.095836,21.7915501 C155.46947,21.6157223 155.656284,21.275061 155.656284,20.7695561 C155.656284,20.3739435 155.414525,20.0277877 154.930998,19.7310783 C154.447471,19.4343689 153.711204,19.0992022 152.722172,18.725568 C151.952926,18.4398479 151.25512,18.1431429 150.628733,17.8354442 C150.002347,17.5277455 149.469377,17.1596116 149.029807,16.7310313 C148.590237,16.302451 148.249576,15.7914591 148.007813,15.1980403 C147.766049,14.6046214 147.64517,13.8903316 147.64517,13.0551495 C147.64517,11.4287423 148.249569,10.1430207 149.458385,9.19794627 C150.667201,8.2528718 152.326552,7.78034165 154.436485,7.78034165 C155.491452,7.78034165 156.502447,7.87374877 157.4695,8.06056582 C158.436552,8.24738287 159.205788,8.45068072 159.777228,8.67046548 L158.920072,12.4947012 C158.348632,12.2968949 157.727749,12.1210698 157.057405,11.9672204 C156.387062,11.8133711 155.63431,11.7364476 154.799128,11.7364476 C153.260634,11.7364476 152.4914,12.1650214 152.4914,13.022182 C152.4914,13.2199883 152.524367,13.3958134 152.590302,13.5496628 C152.656237,13.7035121 152.788106,13.8518646 152.985913,13.9947247 C153.183719,14.1375848 153.452952,14.2914318 153.793618,14.4562704 C154.134284,14.621109 154.568352,14.8024286 155.095836,15.000235 C156.172782,15.3958475 157.062896,15.7859596 157.766207,16.170583 C158.469519,16.5552063 159.024467,16.9727911 159.431069,17.4233498 C159.837671,17.8739086 160.123386,18.3739114 160.288225,18.9233733 C160.453064,19.4728352 160.535482,20.1102015 160.535482,20.8354912 C160.535482,22.5498123 159.892621,23.846523 158.60688,24.725662 C157.321139,25.6048011 155.502447,26.044364 153.150751,26.044364 C151.612257,26.044364 150.33203,25.9124951 149.310031,25.6487534 C148.288032,25.3850117 147.579237,25.1652302 147.183624,24.9894024 L148.007813,21.0003289 C148.842995,21.3300061 149.700142,21.5882493 150.579282,21.7750664 C151.458421,21.9618834 152.326558,22.0552905 153.183718,22.0552905 Z M164.19488,25.5828183 L164.19488,0.791221185 L169.107044,1.77635684e-14 L169.107044,8.30782244 C169.436722,8.19793006 169.859801,8.09353386 170.376295,7.99463072 C170.892789,7.89572758 171.392792,7.84627675 171.876319,7.84627675 C173.282941,7.84627675 174.453278,8.03858553 175.387363,8.42320886 C176.321448,8.80783219 177.068705,9.35179132 177.629156,10.0551026 C178.189607,10.7584138 178.585214,11.5935833 178.815988,12.5606363 C179.046762,13.5276893 179.162147,14.6046184 179.162147,15.7914561 L179.162147,25.5828183 L174.249982,25.5828183 L174.249982,16.384872 C174.249982,14.8024217 174.046685,13.6815363 173.640082,13.022182 C173.23348,12.3628277 172.480729,12.0331555 171.381805,12.0331555 C170.942236,12.0331555 170.530145,12.0716173 170.145522,12.1485419 C169.760899,12.2254666 169.414743,12.3078846 169.107044,12.3957986 L169.107044,25.5828183 L164.19488,25.5828183 Z" id="Combined-Shape" fill="#442563"></path>
                <path d="M100.689755,26.6 C99.0333207,26.6 97.6005262,26.1444873 96.3913289,25.2334482 C95.1821316,24.3224091 94.2545421,23.0097044 93.6085325,21.2952944 C92.962523,19.5808845 92.6395231,17.5559235 92.6395231,15.2203506 C92.6395231,12.4872333 92.9708051,9.90323401 93.6333789,7.46827501 L98.9753541,8.76028761 C98.8097106,9.53881191 98.6771978,10.387722 98.5778117,11.3070432 C98.4784257,12.2263644 98.370759,13.3899924 98.2548086,14.7979618 L98.1802694,15.5185073 C98.1802694,19.5933367 99.0167564,21.6307208 100.689755,21.6307208 C102.329626,21.6307208 103.149549,19.6347469 103.149549,15.6427393 C103.149549,14.9636011 103.041882,13.928345 102.826545,12.5369399 C102.611209,11.1455347 102.337901,9.82040681 102.006614,8.56151644 L107.27405,7.07073267 C108.151961,9.52225602 108.590909,12.379563 108.590909,15.6427393 C108.590909,17.8623618 108.267909,19.7962203 107.6219,21.4443728 C106.97589,23.0925253 106.060724,24.3638199 104.876373,25.2582946 C103.692022,26.1527693 102.296497,26.6 100.689755,26.6 Z M100.634329,7.62117592 C99.0509882,7.62117592 97.767437,6.33762471 97.767437,4.75428405 C97.767437,3.1709434 99.0509882,1.8873922 100.634329,1.8873922 C102.217669,1.8873922 103.501221,3.1709434 103.501221,4.75428405 C103.501221,6.33762471 102.217669,7.62117592 100.634329,7.62117592 Z M100.634329,6.09216692 C101.373221,6.09216692 101.972212,5.49317636 101.972212,4.75428405 C101.972212,4.01539176 101.373221,3.41640119 100.634329,3.41640119 C99.8954365,3.41640119 99.296446,4.01539176 99.296446,4.75428405 C99.296446,5.49317636 99.8954365,6.09216692 100.634329,6.09216692 Z" id="Combined-Shape" fill="#B11A83"></path>
            </g>
        </g>
    </g>
</svg>