<?xml version="1.0" encoding="UTF-8"?>
<svg width="140px" height="43px" viewBox="0 0 140 43" version="1.1" xmlns="http://www.w3.org/2000/svg" xmlns:xlink="http://www.w3.org/1999/xlink">
    <!-- Generator: Sketch 54.1 (76490) - https://sketchapp.com -->
    <title>Group 4</title>
    <desc>Created with Sketch.</desc>
    <g id="Page-1" stroke="none" stroke-width="1" fill="none" fill-rule="evenodd">
        <g id="Desktop-HD-Copy-2" transform="translate(-660.000000, -429.000000)">
            <g id="Group-4" transform="translate(660.500000, 429.001991)">
                <path d="M91.0745538,10.8835515 L91.0745538,18.4413912 C91.0745538,19.1908373 90.9823155,19.8682107 90.7978367,20.4735329 C90.6133578,21.078855 90.3279958,21.5919295 89.9417427,22.0127721 C89.5554895,22.4336154 89.0683568,22.7593316 88.4803301,22.9899299 C87.8923027,23.220529 87.1947522,23.3358268 86.3876558,23.3358268 C86.0532876,23.3358268 85.6987473,23.307002 85.3240243,23.2493524 C84.9493012,23.1917028 84.5803486,23.1052298 84.2171556,22.9899299 C83.8539626,22.8746308 83.505187,22.7305089 83.1708188,22.5575594 C82.8364499,22.3846107 82.5366761,22.1886039 82.2714876,21.9695356 L83.4648307,20.3611167 C83.8683785,20.7416045 84.3238042,21.0327312 84.8311218,21.2345055 C85.3384388,21.436279 85.851514,21.5371644 86.3703611,21.5371644 C86.8661487,21.5371644 87.2841025,21.4651038 87.6242361,21.3209791 C87.9643697,21.1768552 88.2353193,20.9779668 88.4370929,20.7243076 C88.6388672,20.4706491 88.782989,20.1708754 88.8694634,19.8249771 C88.9559385,19.4790788 88.999175,19.0985961 88.999175,18.6835182 L88.999175,18.0781996 L88.9645848,18.0781996 C88.6648068,18.4817475 88.2814417,18.7901689 87.8144789,19.0034726 C87.3475168,19.2167769 86.8257946,19.3234269 86.2492972,19.3234269 C85.6266803,19.3234269 85.0617216,19.2081292 84.5544047,18.9775301 C84.047087,18.7469318 83.6176031,18.435628 83.2659402,18.0436102 C82.9142765,17.6515917 82.6404445,17.1932837 82.4444356,16.6686713 C82.2484267,16.1440589 82.1504237,15.5877472 82.1504237,14.9997205 C82.1504237,14.4001637 82.2455444,13.835205 82.4357886,13.3048272 C82.6260321,12.7744501 82.8969818,12.3132591 83.2486454,11.9212413 C83.6003084,11.5292235 84.0269099,11.2179197 84.5284622,10.9873206 C85.0300145,10.7567223 85.5920909,10.6414245 86.2147077,10.6414245 C86.8027351,10.6414245 87.3503991,10.762487 87.8577161,11.0046154 C88.3650338,11.2467445 88.7685759,11.6214619 89.0683539,12.1287796 L89.1029441,12.1287796 L89.1029441,10.8835515 L91.0745538,10.8835515 Z M86.6470783,12.3363171 C86.2665905,12.3363171 85.929345,12.405496 85.6353309,12.5438553 C85.3413176,12.6822146 85.0934273,12.8695729 84.8916538,13.1059367 C84.6898795,13.3423012 84.5342276,13.6218978 84.4246931,13.944736 C84.3151586,14.2675741 84.2603928,14.6134674 84.2603928,14.9824257 C84.2603928,15.3167939 84.3151586,15.6396278 84.4246931,15.9509359 C84.5342276,16.2622447 84.6898795,16.5418413 84.8916538,16.7897351 C85.0934273,17.0376289 85.3413176,17.2365173 85.6353309,17.3864067 C85.929345,17.5362961 86.2608258,17.6112389 86.6297835,17.6112389 C87.010272,17.6112389 87.3532822,17.5391784 87.6588256,17.3950537 C87.964369,17.2509297 88.2237893,17.057806 88.4370929,16.8156769 C88.6503965,16.5735485 88.8146962,16.2939518 88.9299953,15.9768783 C89.0452952,15.6598049 89.1029441,15.328324 89.1029441,14.9824257 C89.1029441,14.6249974 89.0452952,14.2848695 88.9299953,13.9620307 C88.8146962,13.6391926 88.6503965,13.3567136 88.4370929,13.1145844 C88.2237893,12.872456 87.967252,12.6822146 87.6674733,12.5438553 C87.3676946,12.405496 87.0275667,12.3363171 86.6470783,12.3363171 Z M93.5995986,10.8835515 L95.6749775,10.8835515 L95.6749775,19.1850684 L93.5995986,19.1850684 L93.5995986,10.8835515 Z M93.3055867,8.06449552 C93.3055867,7.73012661 93.4295315,7.4390006 93.6774253,7.19110679 C93.9253191,6.94321298 94.2395053,6.8192675 94.619993,6.8192675 C95.0004814,6.8192675 95.3204322,6.93744759 95.5798561,7.17381134 C95.83928,7.41017581 95.9689894,7.7070672 95.9689894,8.06449552 C95.9689894,8.42192313 95.83928,8.71881524 95.5798561,8.95517899 C95.3204322,9.19154274 95.0004814,9.30972283 94.619993,9.30972283 C94.2395053,9.30972283 93.9253191,9.18577736 93.6774253,8.93788426 C93.4295315,8.68999044 93.3055867,8.39886372 93.3055867,8.06449552 Z M98.5286237,12.5438553 L96.954795,12.5438553 L96.954795,10.8835515 L98.5286237,10.8835515 L98.5286237,9.65561895 C98.5286237,9.15983204 98.5833902,8.68422863 98.6929247,8.22879586 C98.8024592,7.77336309 98.9869352,7.372704 99.2463591,7.02680574 C99.505783,6.68090748 99.8487939,6.40707549 100.275401,6.20530121 C100.702009,6.00352764 101.238144,5.90264229 101.88382,5.90264229 C102.114419,5.90264229 102.307543,5.9112893 102.463197,5.92858403 C102.618851,5.94587948 102.777385,5.9775859 102.938805,6.02370543 L102.800446,7.78777834 C102.685147,7.75318816 102.561201,7.72436408 102.428607,7.70130396 C102.296013,7.67824383 102.154773,7.66671449 102.004884,7.66671449 C101.705106,7.66671449 101.46298,7.72436336 101.278501,7.83966255 C101.094022,7.95496173 100.952782,8.10484895 100.854778,8.28932779 C100.756774,8.47380733 100.690478,8.67557805 100.655887,8.89464706 C100.621298,9.11371608 100.604003,9.32701614 100.604003,9.5345551 L100.604003,10.8835515 L102.523729,10.8835515 L102.523729,12.5438553 L100.604003,12.5438553 L100.604003,19.1850684 L98.5286237,19.1850684 L98.5286237,12.5438553 Z M100.44835,12.5438553 L100.44835,10.8835515 L104.062968,10.8835515 L104.062968,8.47957129 L106.103758,8.47957129 L106.103758,10.8835515 L108.179137,10.8835515 L108.179137,12.5438553 L106.103758,12.5438553 L106.103758,16.4006011 C106.103758,16.7695595 106.170054,17.0750986 106.302649,17.317227 C106.435243,17.5593562 106.732134,17.6804186 107.193332,17.6804186 C107.331691,17.6804186 107.481578,17.6660062 107.642997,17.6371814 C107.804417,17.6083566 107.948539,17.5651201 108.075368,17.5074705 L108.144547,19.1331842 C107.960068,19.2023638 107.741002,19.2571296 107.487344,19.2974845 C107.233685,19.3378393 106.99156,19.3580164 106.760961,19.3580164 C106.207524,19.3580164 105.757863,19.2801905 105.411964,19.1245364 C105.066066,18.9688824 104.792234,18.7555816 104.590461,18.4846277 C104.388686,18.2136745 104.250329,17.9023707 104.175385,17.550707 C104.10044,17.1990441 104.062968,16.8214444 104.062968,16.4178966 L104.062968,12.5438553 L100.44835,12.5438553 Z M84.278377,25.6528246 L84.278377,27.0160641 L84.3394176,27.0160641 C84.461499,26.8261593 84.6208813,26.6328655 84.817569,26.4361785 C85.014256,26.2394916 85.2550247,26.0631539 85.5398823,25.9071604 C85.8247392,25.751167 86.146895,25.622305 86.5063575,25.5205701 C86.8658207,25.4188352 87.2693622,25.3679684 87.7169953,25.3679684 C88.4087919,25.3679684 89.0463206,25.5002222 89.6295993,25.764732 C90.2128788,26.0292425 90.7147634,26.3920911 91.1352665,26.8532892 C91.5557705,27.3144867 91.8813173,27.857064 92.1119157,28.4810371 C92.3425147,29.1050108 92.4578125,29.7764502 92.4578125,30.495376 C92.4578125,31.2143018 92.3459058,31.8891322 92.1220896,32.5198881 C91.8982726,33.1506432 91.5795086,33.7000034 91.1657869,34.167983 C90.7520658,34.6359633 90.250182,35.0089851 89.6601197,35.2870599 C89.070058,35.5651353 88.4020097,35.7041706 87.6559547,35.7041706 C86.9641581,35.7041706 86.3300212,35.5617443 85.7535239,35.2768867 C85.1770265,34.9920291 84.7327916,34.605443 84.4208047,34.1171163 L84.3801112,34.1171163 L84.3801112,40.3025593 L81.9384891,40.3025593 L81.9384891,25.6528246 L84.278377,25.6528246 Z M89.9754962,30.495376 C89.9754962,30.1155663 89.9178473,29.7391527 89.8025481,29.3661252 C89.6872482,28.9930977 89.5143023,28.6573783 89.2837032,28.3589565 C89.0531041,28.0605346 88.7614687,27.8197659 88.4087883,27.6366432 C88.0561079,27.4535205 87.6423925,27.3619602 87.1676301,27.3619602 C86.7199969,27.3619602 86.3198466,27.4569116 85.9671662,27.6468164 C85.6144851,27.8367212 85.3126764,28.080881 85.0617309,28.3793029 C84.8107854,28.6777255 84.6208828,29.0168359 84.4920193,29.3966455 C84.3631551,29.7764559 84.2987241,30.1562598 84.2987241,30.5360695 C84.2987241,30.9158792 84.3631551,31.2922928 84.4920193,31.6653203 C84.6208828,32.0383478 84.8107854,32.3740671 85.0617309,32.672489 C85.3126764,32.9709116 85.6144851,33.2116803 85.9671662,33.394803 C86.3198466,33.577925 86.7199969,33.6694853 87.1676301,33.6694853 C87.6423925,33.6694853 88.0561079,33.5745339 88.4087883,33.3846291 C88.7614687,33.1947243 89.0531041,32.9505645 89.2837032,32.6521426 C89.5143023,32.3537207 89.6872482,32.0146096 89.8025481,31.6347999 C89.9178473,31.2549896 89.9754962,30.8751856 89.9754962,30.495376 Z M107.531296,25.6528246 L109.972919,25.6528246 L109.972919,35.4193144 L107.531296,35.4193144 L107.531296,25.6528246 Z M107.1854,22.3362876 C107.1854,21.9429129 107.331218,21.6004107 107.622857,21.308771 C107.914497,21.0171313 108.284128,20.8713139 108.731761,20.8713139 C109.179394,20.8713139 109.555807,21.0103491 109.861011,21.2884246 C110.166216,21.5664993 110.318815,21.9157837 110.318815,22.3362876 C110.318815,22.7567915 110.166216,23.1060751 109.861011,23.3841506 C109.555807,23.6622253 109.179394,23.8012613 108.731761,23.8012613 C108.284128,23.8012613 107.914497,23.6554432 107.622857,23.3638034 C107.331218,23.0721637 107.1854,22.7296622 107.1854,22.3362876 Z M112.943559,25.6528246 L115.263101,25.6528246 L115.263101,27.2195325 L115.303795,27.2195325 C115.520829,26.7312058 115.897242,26.3005344 116.433045,25.9275069 C116.968848,25.5544793 117.602986,25.3679684 118.335476,25.3679684 C118.973014,25.3679684 119.518982,25.4798751 119.973398,25.7036921 C120.427813,25.9275083 120.800835,26.2225348 121.092475,26.5887802 C121.384114,26.9550249 121.597754,27.3755223 121.733401,27.8502848 C121.869047,28.3250472 121.936869,28.8133668 121.936869,29.3152585 L121.936869,35.4193144 L119.495247,35.4193144 L119.495247,30.0070514 C119.495247,29.7221938 119.4749,29.4237762 119.434206,29.1117901 C119.393512,28.7998032 119.305344,28.518341 119.169697,28.2673955 C119.03405,28.0164493 118.847539,27.809592 118.610158,27.6468164 C118.372778,27.4840408 118.057404,27.4026545 117.66403,27.4026545 C117.270656,27.4026545 116.931544,27.4806497 116.646688,27.6366432 C116.36183,27.7926366 116.127843,27.9927118 115.944721,28.2368751 C115.761598,28.4810385 115.622563,28.7625007 115.52761,29.0812697 C115.432658,29.4000387 115.385182,29.7221938 115.385182,30.0477449 L115.385182,35.4193144 L112.943559,35.4193144 L112.943559,25.6528246 Z M123.381496,27.6061228 L123.381496,25.6528246 L125.090631,25.6528246 L125.090631,22.8246121 L127.491561,22.8246121 L127.491561,25.6528246 L129.933183,25.6528246 L129.933183,27.6061228 L127.491561,27.6061228 L127.491561,32.1434709 C127.491561,32.5775398 127.569556,32.9369973 127.725549,33.2218542 C127.881543,33.5067118 128.230827,33.6491381 128.773412,33.6491381 C128.936188,33.6491381 129.112526,33.6321828 129.30243,33.5982714 C129.492335,33.5643593 129.661891,33.5134933 129.811102,33.4456697 L129.892489,35.3582737 C129.675455,35.4396622 129.417731,35.5040933 129.119308,35.5515689 C128.820887,35.5990453 128.536034,35.6227835 128.264741,35.6227835 C127.613638,35.6227835 127.084625,35.5312232 126.677686,35.3481005 C126.270747,35.1649778 125.948592,34.9140359 125.71121,34.5952669 C125.473829,34.2764979 125.311057,33.9102583 125.222886,33.4965372 C125.134716,33.0828154 125.090631,32.6385805 125.090631,32.163818 L125.090631,27.6061228 L123.381496,27.6061228 Z M137.054582,28.2572223 C136.837548,27.9723647 136.53913,27.7248138 136.15932,27.5145619 C135.77951,27.3043099 135.365795,27.1991854 134.918163,27.1991854 C134.524788,27.1991854 134.16533,27.2805724 133.839779,27.443348 C133.514227,27.6061236 133.351455,27.8774119 133.351455,28.2572223 C133.351455,28.6370319 133.531183,28.9049292 133.890646,29.0609226 C134.250109,29.216916 134.775731,29.3762984 135.467527,29.539074 C135.833772,29.6204618 136.203403,29.7289774 136.576431,29.8646237 C136.949458,30.00027 137.288569,30.1799987 137.593773,30.403815 C137.898978,30.6276319 138.146529,30.9057024 138.336434,31.2380364 C138.526339,31.5703696 138.62129,31.9739118 138.62129,32.4486742 C138.62129,33.045518 138.509383,33.5507929 138.285566,33.9645146 C138.06175,34.3782357 137.763332,34.7139557 137.390305,34.9716841 C137.017277,35.2294117 136.583216,35.4159226 136.088106,35.5312225 C135.592997,35.6465217 135.08094,35.7041706 134.551919,35.7041706 C133.792299,35.7041706 133.053038,35.5651353 132.334112,35.2870599 C131.615186,35.0089851 131.018351,34.6122251 130.543589,34.0967692 L132.15099,32.5911019 C132.422283,32.9437823 132.774958,33.2354178 133.209026,33.4660169 C133.643095,33.6966152 134.124633,33.811913 134.653653,33.811913 C134.829993,33.811913 135.009722,33.7915666 135.192845,33.7508723 C135.375967,33.7101788 135.545523,33.6457478 135.701516,33.5575771 C135.857509,33.4694072 135.98298,33.3507184 136.077933,33.2015078 C136.172886,33.0522965 136.220361,32.8691767 136.220361,32.6521426 C136.220361,32.2452037 136.03385,31.9535682 135.660822,31.7772277 C135.287795,31.6008871 134.728262,31.4245501 133.982207,31.2482096 C133.615962,31.1668218 133.259895,31.0616972 132.913997,30.9328331 C132.568099,30.8039689 132.259508,30.6344141 131.988215,30.4241621 C131.716923,30.2139101 131.499891,29.952795 131.337116,29.6408082 C131.17434,29.3288213 131.092954,28.9422352 131.092954,28.4810371 C131.092954,27.9384518 131.204861,27.4704787 131.428677,27.0771048 C131.652493,26.6837301 131.947519,26.3615743 132.313765,26.1106288 C132.68001,25.8596833 133.093726,25.6731724 133.554923,25.5510904 C134.01612,25.4290084 134.490876,25.3679684 134.979202,25.3679684 C135.684564,25.3679684 136.372959,25.4900483 137.044408,25.7342124 C137.715858,25.9783757 138.248262,26.3513975 138.641636,26.8532892 L137.054582,28.2572223 Z M94.5440719,31.0362014 C94.5440719,30.2216547 94.6905452,29.4821439 94.9834961,28.8176453 C95.2764469,28.1531466 95.6729969,27.5851162 96.1731566,27.1135369 C96.673317,26.6419577 97.2663546,26.2775607 97.9522885,26.0203354 C98.6382225,25.7631101 99.3670164,25.6344995 100.138692,25.6344995 C100.910367,25.6344995 101.639161,25.7631101 102.325095,26.0203354 C103.011029,26.2775607 103.604067,26.6419577 104.104227,27.1135369 C104.604387,27.5851162 105.000936,28.1531466 105.293887,28.8176453 C105.586838,29.4821439 105.733311,30.2216547 105.733311,31.0362014 C105.733311,31.850748 105.586838,32.5938314 105.293887,33.2654751 C105.000936,33.9371189 104.604387,34.5122944 104.104227,34.9910188 C103.604067,35.4697431 103.011029,35.8448578 102.325095,36.1163733 C101.639161,36.3878888 100.910367,36.5236445 100.138692,36.5236445 C99.3670164,36.5236445 98.6382225,36.3878888 97.9522885,36.1163733 C97.2663546,35.8448578 96.673317,35.4697431 96.1731566,34.9910188 C95.6729969,34.5122944 95.2764469,33.9371189 94.9834961,33.2654751 C94.6905452,32.5938314 94.5440719,31.850748 94.5440719,31.0362014 Z M97.1591815,31.0362014 C97.1591815,31.4363296 97.2199142,31.8364513 97.3413818,32.2365795 C97.4628493,32.6367077 97.6450475,32.9939596 97.8879826,33.3083458 C98.1309177,33.622732 98.4381538,33.8799537 98.8097015,34.0800175 C99.1812493,34.2800812 99.624241,34.380112 100.138692,34.380112 C100.653142,34.380112 101.096134,34.2800812 101.467682,34.0800175 C101.83923,33.8799537 102.146466,33.622732 102.389401,33.3083458 C102.632336,32.9939596 102.814534,32.6367077 102.936002,32.2365795 C103.057469,31.8364513 103.118202,31.4363296 103.118202,31.0362014 C103.118202,30.6360732 103.057469,30.2395239 102.936002,29.8465408 C102.814534,29.4535577 102.632336,29.0998785 102.389401,28.7854923 C102.146466,28.4711061 101.83923,28.2174569 101.467682,28.0245382 C101.096134,27.8316196 100.653142,27.7351614 100.138692,27.7351614 C99.624241,27.7351614 99.1812493,27.8316196 98.8097015,28.0245382 C98.4381538,28.2174569 98.1309177,28.4711061 97.8879826,28.7854923 C97.6450475,29.0998785 97.4628493,29.4535577 97.3413818,29.8465408 C97.2199142,30.2395239 97.1591815,30.6360732 97.1591815,31.0362014 Z M53.459058,23.8430144 C53.459058,21.7320022 53.8016288,19.7413843 54.4867825,17.8711008 C55.171937,16.000818 56.1626162,14.3712889 57.458851,12.9824649 C58.7550866,11.593641 60.3290639,10.4918574 62.1808294,9.67708071 C64.0325942,8.86230402 66.1435757,8.45492138 68.5138354,8.45492138 C70.0693168,8.45492138 71.4951568,8.59380157 72.7913916,8.87156693 C74.0876264,9.14933159 75.3468081,9.54745487 76.5689738,10.0659497 L74.8468406,16.6767188 C74.0690998,16.3804362 73.2173,16.1211931 72.2914176,15.8989809 C71.3655345,15.6767695 70.3285621,15.5656652 69.1804675,15.5656652 C66.7361367,15.5656652 64.9121756,16.3248773 63.7085279,17.8433249 C62.5048801,19.3617726 61.9030662,21.3616491 61.9030662,23.8430144 C61.9030662,26.4725214 62.4678456,28.5094324 63.5974229,29.9538096 C64.7269995,31.3981861 66.6991008,32.1203643 69.5137832,32.1203643 C70.5137369,32.1203643 71.5877438,32.0277773 72.7358391,31.8426004 C73.8839336,31.6574242 74.9394247,31.3611459 75.9023417,30.9537575 L77.0689478,37.7311849 C76.1060309,38.1385732 74.9024002,38.4904034 73.4580237,38.786686 C72.0136473,39.0829679 70.4211527,39.2311075 68.6804929,39.2311075 C66.0139506,39.2311075 63.7177965,38.8329835 61.7919605,38.0367247 C59.8661245,37.2404653 58.2828885,36.157199 57.0422062,34.786893 C55.8015239,33.4165863 54.8941716,31.7963158 54.320125,29.926033 C53.7460785,28.0557502 53.459058,26.0280978 53.459058,23.8430144 Z M0,5.33326433 L8.27734957,4 L8.27734957,12.6106657 L18.2212799,12.6106657 L18.2212799,19.499198 L8.27734957,19.499198 L8.27734957,29.7764445 C8.27734957,31.5171036 8.58288626,32.9059068 9.19396885,33.9428957 C9.80505138,34.9798838 11.0364568,35.4983707 12.8882219,35.4983707 C13.7770698,35.4983707 14.6936793,35.4150423 15.6380797,35.2483834 C16.58248,35.0817245 17.4435385,34.8502573 18.2212799,34.5539753 L19.387886,40.9980863 C18.3879324,41.4054746 17.2768902,41.7573048 16.0547252,42.0535874 C14.8325602,42.3498693 13.3326526,42.4980088 11.5549578,42.4980088 C9.29580415,42.4980088 7.42554921,42.1924719 5.94413692,41.5813893 C4.4627247,40.9703068 3.27761269,40.1185077 2.3887653,39.0259657 C1.49991798,37.9334243 0.8795859,36.6094322 0.527750483,35.0539493 C0.175915065,33.4984664 0,31.7763503 0,29.8875495 L0,5.33326433 Z" id="Combined-Shape" fill="#442563" fill-rule="nonzero"></path>
                <path d="M36.0218037,42.1405226 C33.2305922,42.1405226 30.8162308,41.3729515 28.7786467,39.837785 C26.7410627,38.3026192 25.1780081,36.0906173 24.0894358,33.2017143 C23.0008636,30.3128106 22.4565857,26.9006063 22.4565857,22.9649985 C22.4565857,18.3595004 23.0148194,14.0052765 24.131304,9.90219592 L33.1329143,12.0793297 C32.8537935,13.3911987 32.6304996,14.821673 32.4630268,16.3707953 C32.2955547,17.9199176 32.1141283,19.8807139 31.9187439,22.2532436 L31.79314,23.4674139 C31.79314,30.3337936 33.2026805,33.7669317 36.0218037,33.7669317 C38.7851021,33.7669317 40.166731,30.4035728 40.166731,23.6767542 C40.166731,22.5323572 39.9853053,20.7878769 39.6224481,18.4432596 C39.2595902,16.0986417 38.7990473,13.8657068 38.2408049,11.7443863 L47.1168121,9.23230844 C48.5961538,13.3633013 49.335814,18.1780682 49.335814,23.6767542 C49.335814,27.4169768 48.7915354,30.6756671 47.7029632,33.452922 C46.6143909,36.230177 45.0722701,38.3723991 43.0765542,39.8796532 C41.0808383,41.3869074 38.7292781,42.1405226 36.0218037,42.1405226 Z M35.9284057,10.159845 C33.260363,10.159845 31.0974873,7.99696925 31.0974873,5.32892725 C31.0974873,2.66088454 33.260363,0.498008837 35.9284057,0.498008837 C38.5964484,0.498008837 40.7593241,2.66088454 40.7593241,5.32892725 C40.7593241,7.99696925 38.5964484,10.159845 35.9284057,10.159845 Z M35.9284057,7.58335537 C37.1734923,7.58335537 38.1828338,6.57401309 38.1828338,5.32892725 C38.1828338,4.0838407 37.1734923,3.07449842 35.9284057,3.07449842 C34.6833192,3.07449842 33.6739776,4.0838407 33.6739776,5.32892725 C33.6739776,6.57401309 34.6833192,7.58335537 35.9284057,7.58335537 Z" id="Combined-Shape" fill="#B11A83"></path>
            </g>
        </g>
    </g>
</svg>